<?xml version="1.0" encoding="UTF-8"?>
<svg version="1.1" xmlns="http://www.w3.org/2000/svg" width="1079" height="1163">
<path d="M0 0 C356.07 0 712.14 0 1079 0 C1079 383.79 1079 767.58 1079 1163 C722.93 1163 366.86 1163 0 1163 C0 779.21 0 395.42 0 0 Z " fill="#FEFEFE" transform="translate(0,0)"/>
<path d="M0 0 C356.07 0 712.14 0 1079 0 C1079 383.79 1079 767.58 1079 1163 C722.93 1163 366.86 1163 0 1163 C0 779.21 0 395.42 0 0 Z M98 80 C98 407.36 98 734.72 98 1072 C389.72 1072 681.44 1072 982 1072 C982 744.64 982 417.28 982 80 C690.28 80 398.56 80 98 80 Z " fill="#FFFFFF" transform="translate(0,0)"/>
<path d="M0 0 C88.11 0 176.22 0 267 0 C267 264.66 267 529.32 267 802 C178.89 802 90.78 802 0 802 C0 723.13 0 644.26 0 563 C31.35 563 62.7 563 95 563 C95 607.88 95 652.76 95 699 C125.03 699 155.06 699 186 699 C186 499.02 186 299.04 186 93 C156.3 93 126.6 93 96 93 C96 132.27 96 171.54 96 212 C64.32 212 32.64 212 0 212 C0 142.04 0 72.08 0 0 Z " fill="#010101" transform="translate(587,175)"/>
<path d="M0 0 C88.11 0 176.22 0 267 0 C267 69.96 267 139.92 267 212 C235.32 212 203.64 212 171 212 C171 172.73 171 133.46 171 93 C141.3 93 111.6 93 81 93 C81 292.98 81 492.96 81 699 C111.03 699 141.06 699 172 699 C172 654.12 172 609.24 172 563 C203.35 563 234.7 563 267 563 C267 641.87 267 720.74 267 802 C178.89 802 90.78 802 0 802 C0 537.34 0 272.68 0 0 Z " fill="#060606" transform="translate(226,175)"/>
<path d="M0 0 C291.72 0 583.44 0 884 0 C884 327.36 884 654.72 884 992 C592.28 992 300.56 992 0 992 C0 664.64 0 337.28 0 0 Z M11 10 C11 330.76 11 651.52 11 982 C295.79 982 580.58 982 874 982 C874 661.24 874 340.48 874 10 C589.21 10 304.42 10 11 10 Z " fill="#0D0D0D" transform="translate(98,80)"/>
<path d="M0 0 C88.11 0 176.22 0 267 0 C267 69.96 267 139.92 267 212 C235.32 212 203.64 212 171 212 C171 172.73 171 133.46 171 93 C141.3 93 111.6 93 81 93 C81 292.98 81 492.96 81 699 C111.03 699 141.06 699 172 699 C172 654.12 172 609.24 172 563 C203.35 563 234.7 563 267 563 C267 641.87 267 720.74 267 802 C178.89 802 90.78 802 0 802 C0 537.34 0 272.68 0 0 Z M2 2 C2 265.34 2 528.68 2 800 C88.79 800 175.58 800 265 800 C265 722.45 265 644.9 265 565 C234.97 565 204.94 565 174 565 C174 609.88 174 654.76 174 701 C142.65 701 111.3 701 79 701 C79 499.7 79 298.4 79 91 C110.35 91 141.7 91 174 91 C174 129.94 174 168.88 174 209 C204.03 209 234.06 209 265 209 C265 140.69 265 72.38 265 2 C178.21 2 91.42 2 2 2 Z " fill="#6E6E6E" transform="translate(226,175)"/>
<path d="M0 0 C88.11 0 176.22 0 267 0 C267 264.66 267 529.32 267 802 C178.89 802 90.78 802 0 802 C0 723.13 0 644.26 0 563 C31.35 563 62.7 563 95 563 C95 607.88 95 652.76 95 699 C125.03 699 155.06 699 186 699 C186 499.02 186 299.04 186 93 C156.3 93 126.6 93 96 93 C96 132.27 96 171.54 96 212 C64.32 212 32.64 212 0 212 C0 142.04 0 72.08 0 0 Z M2 2 C1.979375 24.254375 1.95875 46.50875 1.9375 69.4375 C1.928396 76.31134521 1.91929199 83.18519043 1.90991211 90.26733398 C1.90567023 95.96859195 1.90219543 101.66983608 1.90234375 107.37109375 C1.90231692 108.11920468 1.90229009 108.86731561 1.90226245 109.63809657 C1.90348018 127.83591468 1.97639906 146.03081302 2.22705078 164.22705078 C2.23680868 164.93548055 2.24656658 165.64391033 2.25662017 166.37380767 C2.46140783 180.9165923 2.7402868 195.45810571 3 210 C33.03 210 63.06 210 94 210 C94 170.73 94 131.46 94 91 C125.02 91 156.04 91 188 91 C188 292.3 188 493.6 188 701 C156.98 701 125.96 701 94 701 C94 655.79 94 610.58 94 564 C63.64 564 33.28 564 2 564 C2 641.88 2 719.76 2 800 C88.79 800 175.58 800 265 800 C265 536.66 265 273.32 265 2 C178.21 2 91.42 2 2 2 Z " fill="#656565" transform="translate(587,175)"/>
<path d="M0 0 C0.96161576 -0.00282234 1.92323153 -0.00564468 2.91398716 -0.00855255 C3.98278583 -0.0065258 5.05158449 -0.00449905 6.152771 -0.00241089 C7.2781449 -0.00414055 8.40351881 -0.00587021 9.56299496 -0.00765228 C13.36344244 -0.01205632 17.16384625 -0.00903767 20.96429443 -0.00582886 C22.98390571 -0.00622155 25.00351562 -0.00734977 27.02312654 -0.0085777 C34.31902691 -0.01298308 41.61490793 -0.00996532 48.91080612 -0.0035814 C54.27253856 0.00106869 59.63426795 0.00346474 64.9960022 0.00466919 C131.85778304 0.02256143 198.71502787 0.51075381 265.57366943 1.12698364 C266.55048325 6.01482014 266.71466412 10.76660051 266.70065308 15.73153687 C266.70221307 16.58463117 266.70377306 17.43772548 266.70538032 18.31667113 C266.70936079 21.16784769 266.70621216 24.01897077 266.70306396 26.87014771 C266.70441927 28.91702302 266.70619994 30.96389809 266.70837402 33.01077271 C266.71293177 38.56409968 266.7111659 44.11740806 266.70799494 49.67073536 C266.70546416 55.47807172 266.70781075 61.28540649 266.7093811 67.09274292 C266.71120011 76.84081305 266.7088029 86.5888756 266.70404053 96.33694458 C266.69859232 107.61939164 266.70036569 118.90182065 266.70586693 130.18426728 C266.71039842 139.86417109 266.71104862 149.54406946 266.70842826 159.22397399 C266.70686647 165.00870672 266.70666919 170.79343095 266.70996475 176.57816315 C266.71284418 182.01179352 266.71086644 187.44540049 266.7050705 192.87902832 C266.70374355 194.87776399 266.70413591 196.87650161 266.70633316 198.87523651 C266.70904705 201.59363964 266.70566064 204.31196676 266.70065308 207.03036499 C266.7028838 207.82976383 266.70511452 208.62916268 266.70741284 209.45278573 C266.68781989 214.89868273 266.68781989 214.89868273 265.57366943 217.12698364 C252.68294689 217.15010475 239.79222923 217.16789754 226.90149021 217.17879581 C220.91647677 217.18402515 214.93147747 217.19112372 208.94647217 217.2024231 C203.17583514 217.21325017 197.40521175 217.21926009 191.63456535 217.22186089 C189.42764 217.22371546 187.22071543 217.22733668 185.01379585 217.2327137 C181.93420902 217.23992174 178.85467929 217.24097468 175.77508545 217.24050903 C174.85295761 217.24410431 173.93082977 217.24769958 172.98075867 217.25140381 C166.68772159 217.2410358 166.68772159 217.2410358 165.57366943 216.12698364 C165.47304559 213.32118416 165.43751881 210.53997063 165.4442749 207.7336731 C165.44164642 206.41120827 165.44164642 206.41120827 165.43896484 205.06202698 C165.43453492 202.12142003 165.43749353 199.18087255 165.44085693 196.24026489 C165.44018296 194.18689462 165.43921216 192.13352442 165.43795776 190.08015442 C165.43647825 185.75306446 165.43863881 181.42599505 165.44329834 177.09890747 C165.44892089 171.61601982 165.44576661 166.13318193 165.43972588 160.65029621 C165.43606237 156.39367824 165.43728626 152.13707147 165.43985367 147.88045311 C165.44051101 145.86393414 165.43973733 143.84741407 165.43737411 141.83089638 C165.42466403 127.90293722 165.82208399 114.03495863 166.57366943 100.12698364 C166.90366943 100.12698364 167.23366943 100.12698364 167.57366943 100.12698364 C167.57366943 138.07698364 167.57366943 176.02698364 167.57366943 215.12698364 C199.25366943 215.12698364 230.93366943 215.12698364 263.57366943 215.12698364 C263.57366943 145.16698364 263.57366943 75.20698364 263.57366943 3.12698364 C175.46366943 3.12698364 87.35366943 3.12698364 -3.42633057 3.12698364 C-3.42633057 267.78698364 -3.42633057 532.44698364 -3.42633057 805.12698364 C84.68366943 805.12698364 172.79366943 805.12698364 263.57366943 805.12698364 C263.57366943 726.25698364 263.57366943 647.38698364 263.57366943 566.12698364 C232.22366943 566.12698364 200.87366943 566.12698364 168.57366943 566.12698364 C168.57366943 611.00698364 168.57366943 655.88698364 168.57366943 702.12698364 C168.24366943 702.12698364 167.91366943 702.12698364 167.57366943 702.12698364 C167.57366943 656.91698364 167.57366943 611.70698364 167.57366943 565.12698364 C199.58366943 565.12698364 231.59366943 565.12698364 264.57366943 565.12698364 C265.34986278 568.23175703 265.69834192 570.24926879 265.69671726 573.33610916 C265.69870813 574.17338295 265.70069901 575.01065674 265.70275021 575.87330246 C265.69983754 576.78743534 265.69692488 577.70156822 265.69392395 578.6434021 C265.69477997 579.61635223 265.69563599 580.58930237 265.69651794 581.59173584 C265.69817658 584.87075619 265.69264388 588.14972576 265.68719482 591.42874146 C265.68688858 593.81215793 265.68702182 596.1955745 265.68756008 598.57899094 C265.68778622 604.97254949 265.68198242 611.3660894 265.67494965 617.75964355 C265.66926268 623.75497498 265.66898696 629.75030182 265.66827393 635.74563599 C265.66302266 653.28942102 265.64906155 670.83320256 265.63616943 688.37698364 C265.61554443 727.56448364 265.59491943 766.75198364 265.57366943 807.12698364 C176.14366943 807.12698364 86.71366943 807.12698364 -5.42633057 807.12698364 C-5.44646135 713.28935778 -5.44646135 713.28935778 -5.45198059 684.2651825 C-5.45217792 683.23004774 -5.45237526 682.19491298 -5.45257857 681.1284105 C-5.45920015 646.30049667 -5.46445231 611.47258278 -5.46867371 576.64466858 C-5.46888079 574.94050298 -5.46888079 574.94050298 -5.46909206 573.20190979 C-5.4720846 548.51431959 -5.47485483 523.82672937 -5.4773959 499.13913912 C-5.47864329 487.03328065 -5.47993984 474.92742218 -5.48126221 462.82156372 C-5.48139297 461.61685127 -5.48152373 460.41213882 -5.48165845 459.17091993 C-5.48592383 420.08545053 -5.49343813 380.99998257 -5.50262779 341.91451405 C-5.51205008 301.7668767 -5.51821362 261.61924015 -5.52024556 221.47160172 C-5.52053373 215.80792061 -5.52085937 210.1442395 -5.52120781 204.4805584 C-5.52127523 203.36580653 -5.52134266 202.25105467 -5.52141212 201.10252244 C-5.52259628 183.11974603 -5.52724089 165.13697207 -5.5331626 147.15419666 C-5.53903504 129.09867503 -5.54130227 111.04315585 -5.53983194 92.9876333 C-5.5390683 82.24550973 -5.54112628 71.5033951 -5.54712811 60.76127314 C-5.550858 53.59959953 -5.55100844 46.43793183 -5.54816238 39.27625783 C-5.54664219 35.18665087 -5.54675958 31.0970609 -5.55121375 27.00745571 C-5.55522625 23.29545339 -5.55473397 19.58348148 -5.55047054 15.87147969 C-5.54940653 13.89001896 -5.5533054 11.90855753 -5.55733904 9.92710063 C-5.55509175 8.76951907 -5.55284446 7.61193751 -5.55052906 6.41927773 C-5.55068504 5.41367064 -5.55084102 4.40806356 -5.55100173 3.37198353 C-5.32918159 -0.62241402 -3.53757103 0.00159422 0 0 Z " fill="#EAEAEA" transform="translate(229.42633056640625,171.87301635742188)"/>
<path d="M0 0 C0.93840776 -0.00260775 1.87681552 -0.00521549 2.84365988 -0.00790226 C3.88673001 -0.00567154 4.92980014 -0.00344082 6.00447845 -0.0011425 C7.1031029 -0.00270249 8.20172734 -0.00426248 9.33364344 -0.00586975 C13.04567174 -0.00988493 16.75765975 -0.0066881 20.46968842 -0.00355339 C23.11842724 -0.0049072 25.76716321 -0.0066506 28.41590118 -0.00886345 C34.88182355 -0.01332184 41.34773434 -0.01234437 47.81365716 -0.00945081 C53.0662962 -0.00719705 58.31893197 -0.00688414 63.57157135 -0.00797462 C64.69079329 -0.00820447 64.69079329 -0.00820447 65.83262578 -0.00843897 C67.34817151 -0.00875868 68.86371725 -0.00908289 70.37926298 -0.00941156 C84.60740297 -0.01226655 98.83553653 -0.00897902 113.06367546 -0.00361119 C125.28544212 0.00085686 137.50719928 0.00008094 149.72896576 -0.00452995 C163.904442 -0.00987537 178.07991259 -0.01199186 192.25538969 -0.00891769 C193.76551787 -0.00859912 195.27564605 -0.00828475 196.78577423 -0.00797462 C197.90043917 -0.00774321 197.90043917 -0.00774321 199.0376226 -0.00750712 C204.28701802 -0.00664187 209.53640988 -0.00810502 214.78580475 -0.01045418 C221.17866055 -0.01325202 227.57150406 -0.01251425 233.96435845 -0.00717343 C237.22922699 -0.0045362 240.49407065 -0.00406549 243.75893974 -0.00682259 C247.29026974 -0.00953096 250.82154094 -0.0061568 254.35286713 -0.0011425 C255.91747232 -0.00448858 255.91747232 -0.00448858 257.5136857 -0.00790226 C258.45209346 -0.00529452 259.39050122 -0.00268677 260.35734558 0 C261.17358194 0.00016235 261.9898183 0.0003247 262.83078909 0.00049198 C264.67867279 0.12584114 264.67867279 0.12584114 265.67867279 1.12584114 C265.77651434 2.88771026 265.80314499 4.65355151 265.80287129 6.41813523 C265.80624223 8.15450756 265.80624223 8.15450756 265.80968127 9.92595813 C265.80705425 11.21643354 265.80442724 12.50690895 265.80172062 13.83648968 C265.80245937 15.21223041 265.80363701 16.58797097 265.80521712 17.96371099 C265.80830656 21.77885286 265.80509422 25.59396837 265.80093898 29.40910829 C265.79752208 33.54651598 265.79987226 37.68392084 265.80151647 41.82132906 C265.8035963 49.08409863 265.80193611 56.34686005 265.79787827 63.60962868 C265.79186102 74.40922215 265.7915408 85.20881044 265.79242025 96.00840528 C265.79373643 114.17210009 265.79038414 132.33579127 265.78440285 150.49948502 C265.7784928 168.49279549 265.77463831 186.48610446 265.77355003 204.47941589 C265.77348129 205.59674266 265.77341255 206.71406942 265.77334173 207.86525457 C265.77300341 213.53922182 265.77270202 219.21318906 265.77241486 224.8871563 C265.77031251 265.11198262 265.76356978 305.33680695 265.75411224 345.56163216 C265.74493299 384.64789507 265.73784684 423.73415744 265.73360443 462.82042122 C265.7334729 464.02449876 265.73334138 465.2285763 265.73320587 466.46914103 C265.73188739 478.56060175 265.73061157 490.65206247 265.72936701 502.74352319 C265.72683056 527.37685751 265.72400931 552.0101918 265.72101593 576.64352608 C265.72087864 577.77621286 265.72074135 578.90889964 265.7205999 580.07591027 C265.71637546 614.80528708 265.71094347 649.53466356 265.70432281 684.26403999 C265.70413526 685.25035531 265.7039477 686.23667062 265.70375446 687.25287427 C265.69613782 727.21053005 265.68724482 767.16818556 265.67867279 807.12584114 C176.24867279 807.12584114 86.81867279 807.12584114 -5.32132721 807.12584114 C-5.32132721 726.93584114 -5.32132721 646.74584114 -5.32132721 564.12584114 C26.68867279 564.12584114 58.69867279 564.12584114 91.67867279 564.12584114 C92.67867279 565.12584114 92.67867279 565.12584114 92.80172062 567.38846874 C92.80079883 568.39783206 92.79987703 569.40719538 92.79892731 570.44714546 C92.8009893 572.17831612 92.8009893 572.17831612 92.80309296 573.94445992 C92.79770004 575.86064377 92.79770004 575.86064377 92.79219818 577.81553841 C92.79191631 579.16542242 92.79207404 580.51530658 92.79264069 581.86519051 C92.79292866 585.54064722 92.78703195 589.21607157 92.78006673 592.89152074 C92.77383317 596.72857263 92.77322939 600.56562518 92.77204132 604.40268135 C92.76892801 611.67355332 92.76071462 618.94441033 92.75069183 626.2152757 C92.73953069 634.49083466 92.73402024 642.76639432 92.7289964 651.04195893 C92.71853201 668.06992833 92.70093257 685.09788316 92.67867279 702.12584114 C92.34867279 702.12584114 92.01867279 702.12584114 91.67867279 702.12584114 C91.67867279 657.24584114 91.67867279 612.36584114 91.67867279 566.12584114 C60.32867279 566.12584114 28.97867279 566.12584114 -3.32132721 566.12584114 C-3.32132721 644.99584114 -3.32132721 723.86584114 -3.32132721 805.12584114 C84.78867279 805.12584114 172.89867279 805.12584114 263.67867279 805.12584114 C263.67867279 540.46584114 263.67867279 275.80584114 263.67867279 3.12584114 C175.56867279 3.12584114 87.45867279 3.12584114 -3.32132721 3.12584114 C-3.32132721 73.08584114 -3.32132721 143.04584114 -3.32132721 215.12584114 C-3.98132721 215.45584114 -4.64132721 215.78584114 -5.32132721 216.12584114 C-5.3446526 188.11059494 -5.36230461 160.09535019 -5.37313938 132.08009624 C-5.37830311 119.07312445 -5.38534725 106.06615868 -5.39676666 93.05919075 C-5.40671117 81.72679879 -5.41318008 70.3944112 -5.4154157 59.062015 C-5.41672321 53.05756938 -5.41981156 47.05313624 -5.42705727 41.04869461 C-5.43381381 35.40421146 -5.43594492 29.75974599 -5.43443489 24.11525917 C-5.43471138 22.03709187 -5.43671866 19.95892401 -5.44053268 17.88076019 C-5.44546423 15.05659365 -5.4443275 12.23249502 -5.44158173 9.4083271 C-5.44449457 8.57468606 -5.44740741 7.74104502 -5.45040852 6.88214213 C-5.43216356 0.00108048 -5.43216356 0.00108048 0 0 Z " fill="#E9E9E9" transform="translate(590.3213272094727,171.87415885925293)"/>
<path d="M0 0 C29.7 0 59.4 0 90 0 C90 199.98 90 399.96 90 606 C60.3 606 30.6 606 0 606 C-0.33 560.79 -0.66 515.58 -1 469 C-32.68 468.67 -64.36 468.34 -97 468 C-97 467.67 -97 467.34 -97 467 C-84.2396613 466.97687879 -71.47932755 466.95908605 -58.71897221 466.94818783 C-52.79449285 466.94295851 -46.87002778 466.93585999 -40.94555664 466.92456055 C-35.23327429 466.91373339 -29.52100572 466.90772353 -23.80871391 466.90512276 C-21.62411723 466.9032682 -19.43952135 466.899647 -17.2549305 466.89426994 C-14.20647651 466.88706179 -11.15808021 466.88600896 -8.10961914 466.88647461 C-7.19684204 466.88287933 -6.28406494 466.87928406 -5.34362793 466.87557983 C0.88594784 466.88594784 0.88594784 466.88594784 2 468 C2.09632045 469.7589343 2.1218751 471.52177159 2.12025452 473.28334045 C2.12231651 475.00188988 2.12231651 475.00188988 2.12442017 476.75515747 C2.11902725 478.65731522 2.11902725 478.65731522 2.11352539 480.59790039 C2.11324352 481.93793231 2.11340125 483.27796439 2.1139679 484.61799622 C2.11425587 488.26659438 2.1083592 491.91515995 2.10139394 495.56375051 C2.09516034 499.37277516 2.0945566 503.1818005 2.09336853 506.99082947 C2.09025523 514.20857754 2.08204186 521.42631054 2.07201904 528.64405197 C2.0587726 538.39398973 2.05335798 548.14393159 2.04751682 557.89387608 C2.03810197 573.26259535 2.01818305 588.63128281 2 604 C30.38 604 58.76 604 88 604 C88 405.34 88 206.68 88 2 C59.62 2 31.24 2 2 2 C2.01160156 10.50652344 2.02320313 19.01304687 2.03515625 27.77734375 C2.04091165 33.83314454 2.04603858 39.88894328 2.05025387 45.94474506 C2.05580565 53.79967665 2.06286527 61.65459767 2.07543945 69.50952148 C2.08644675 76.38889737 2.09227617 83.26826181 2.09487724 90.14764595 C2.09673206 92.77881615 2.10035373 95.40998569 2.10573006 98.04115105 C2.11293635 101.7122625 2.11399112 105.38332603 2.11352539 109.05444336 C2.11712067 110.15423523 2.12071594 111.2540271 2.12442017 112.387146 C2.1230455 113.38139084 2.12167084 114.37563568 2.12025452 115.40000916 C2.12117631 116.26925994 2.1220981 117.13851072 2.12304783 118.03410244 C2 120 2 120 1 121 C-2.07454761 121.09532328 -5.12659158 121.1255138 -8.20141602 121.11352539 C-9.65004028 121.11374443 -9.65004028 121.11374443 -11.12792969 121.1139679 C-14.33661099 121.11326834 -17.54523503 121.10547397 -20.75390625 121.09765625 C-22.97208118 121.09579222 -25.19025652 121.09436825 -27.40843201 121.09336853 C-33.25940071 121.08954216 -39.11034477 121.07971086 -44.96130371 121.06866455 C-50.92667304 121.05845299 -56.89204633 121.05387146 -62.85742188 121.04882812 C-74.57162544 121.03808869 -86.28581067 121.02101085 -98 121 C-97.505 120.01 -97.505 120.01 -97 119 C-64.99 119 -32.98 119 0 119 C0 79.73 0 40.46 0 0 Z " fill="#F0F0F0" transform="translate(683,268)"/>
<path d="M0 0 C31.02 0 62.04 0 94 0 C94 201.3 94 402.6 94 610 C62.98 610 31.96 610 0 610 C0 564.79 0 519.58 0 473 C-30.69 473 -61.38 473 -93 473 C-93 474.98 -93 476.96 -93 479 C-93.33 479 -93.66 479 -94 479 C-94 476.69 -94 474.38 -94 472 C-62.65 472 -31.3 472 1 472 C1 516.88 1 561.76 1 608 C31.03 608 61.06 608 92 608 C92 408.02 92 208.04 92 2 C62.3 2 32.6 2 2 2 C2 41.27 2 80.54 2 121 C-29.68 121 -61.36 121 -94 121 C-90.09587413 118.39724942 -86.83194824 118.73425451 -82.3059082 118.77294922 C-81.4035377 118.77270815 -80.5011672 118.77246708 -79.57145214 118.7722187 C-76.6477952 118.77371259 -73.72439263 118.78894886 -70.80078125 118.8046875 C-68.99686811 118.8076277 -67.19295327 118.80966828 -65.38903809 118.81079102 C-58.69683272 118.82128103 -52.00466387 118.8492034 -45.3125 118.875 C-30.359375 118.91625 -15.40625 118.9575 0 119 C0 79.73 0 40.46 0 0 Z " fill="#7D7D7D" transform="translate(681,266)"/>
<path d="M0 0 C0.33 0 0.66 0 1 0 C1 47.85 1 95.7 1 145 C-30.68 145 -62.36 145 -95 145 C-95 105.73 -95 66.46 -95 26 C-124.7 26 -154.4 26 -185 26 C-185 225.98 -185 425.96 -185 632 C-155.3 632 -125.6 632 -95 632 C-94.34 632.66 -93.68 633.32 -93 634 C-124.02 634 -155.04 634 -187 634 C-187 432.7 -187 231.4 -187 24 C-155.98 24 -124.96 24 -93 24 C-93 63.27 -93 102.54 -93 143 C-62.31 143 -31.62 143 0 143 C0 95.81 0 48.62 0 0 Z " fill="#7F7F7F" transform="translate(492,242)"/>
<path d="M0 0 C0.71682449 -0.00570007 1.43364899 -0.01140015 2.17219543 -0.01727295 C3.69461587 -0.02673983 5.21705695 -0.0332636 6.73950195 -0.03710938 C9.05522284 -0.04676324 11.37003652 -0.07774707 13.68554688 -0.109375 C15.16535932 -0.1159102 16.64517811 -0.12115864 18.125 -0.125 C18.81272995 -0.1373468 19.5004599 -0.1496936 20.20903015 -0.16241455 C26.36699812 -0.13428585 30.18099783 1.71309593 34.76953125 5.703125 C37.58006901 9.35045718 37.52524188 13.02997401 37.3359375 17.5 C36.68734324 21.47192236 35.21410334 23.94122675 32.89453125 27.203125 C33.76078125 27.5125 33.76078125 27.5125 34.64453125 27.828125 C37.94117269 29.84273921 39.16231937 31.73870124 40.89453125 35.203125 C41.76980666 41.12806621 41.36514781 46.17671481 37.89453125 51.203125 C32.22697877 56.57238525 27.15184721 57.50171879 19.53125 57.3984375 C18.73926712 57.3956076 17.94728424 57.39277771 17.13130188 57.38986206 C14.61472126 57.37871363 12.09850336 57.35361922 9.58203125 57.328125 C7.87044787 57.31808829 6.15885888 57.30896364 4.44726562 57.30078125 C0.26288219 57.27879181 -3.92123189 57.24429908 -8.10546875 57.203125 C-8.10546875 54.893125 -8.10546875 52.583125 -8.10546875 50.203125 C-5.13546875 50.203125 -2.16546875 50.203125 0.89453125 50.203125 C0.89453125 35.683125 0.89453125 21.163125 0.89453125 6.203125 C-1.74546875 6.203125 -4.38546875 6.203125 -7.10546875 6.203125 C-7.48765642 4.54697843 -7.81941977 2.87855476 -8.10546875 1.203125 C-6.18188829 -0.72045546 -2.62219744 0.01596905 0 0 Z " fill="#0C0C0C" transform="translate(463.10546875,595.796875)"/>
<path d="M0 0 C6.78287956 5.90293843 10.43625668 11.98405345 11.2734375 20.91796875 C11.49036044 27.50074565 10.67691594 32.98563041 8 39 C7.73316406 39.63808594 7.46632813 40.27617188 7.19140625 40.93359375 C4.17012082 47.17758363 -0.95982582 49.69706821 -7.0625 52.3125 C-14.63264409 54.08423585 -19.50129294 52.41603511 -26.25 48.84765625 C-30.18344074 46.20487575 -32.15951353 43.30275892 -34 39 C-34.35964844 38.30648437 -34.71929687 37.61296875 -35.08984375 36.8984375 C-36.46557767 32.51734492 -36.40882173 28.25371837 -36.4375 23.6875 C-36.48680664 22.31948242 -36.48680664 22.31948242 -36.53710938 20.92382812 C-36.59807798 13.19190047 -34.27526174 8.6643317 -29.19140625 2.9765625 C-21.02351934 -3.80062903 -9.42301486 -5.94839616 0 0 Z " fill="#FBFBFB" transform="translate(526,479)"/>
<path d="M0 0 C0.9583374 0.00523682 1.9166748 0.01047363 2.90405273 0.01586914 C4.45576172 0.02070312 4.45576172 0.02070312 6.03881836 0.02563477 C7.12743164 0.03401367 8.21604492 0.04239258 9.33764648 0.05102539 C10.97636719 0.05779297 10.97636719 0.05779297 12.64819336 0.06469727 C15.35723144 0.07652713 18.06616248 0.09300996 20.77514648 0.11352539 C25.25914204 8.48582378 28.75233896 16.92883084 31.87255859 25.87890625 C32.59421958 27.94484255 33.33131779 30.00481809 34.07006836 32.06469727 C34.54168874 33.39966003 35.01242434 34.73493577 35.48217773 36.07055664 C35.89959229 37.25625244 36.31700684 38.44194824 36.74707031 39.66357422 C37.78624749 43.15077742 38.35435037 46.50378018 38.77514648 50.11352539 C39.57952148 50.09290039 40.38389648 50.07227539 41.21264648 50.05102539 C43.77514648 50.11352539 43.77514648 50.11352539 44.77514648 51.11352539 C44.90014648 53.61352539 44.90014648 53.61352539 44.77514648 56.11352539 C43.19101289 57.69765898 41.56536863 57.24332169 39.37280273 57.24633789 C38.48270508 57.24762695 37.59260742 57.24891602 36.67553711 57.25024414 C35.7390332 57.24637695 34.8025293 57.24250977 33.83764648 57.23852539 C32.90500977 57.24239258 31.97237305 57.24625977 31.01147461 57.25024414 C30.12008789 57.24895508 29.22870117 57.24766602 28.31030273 57.24633789 C27.48925049 57.24520996 26.66819824 57.24408203 25.82226562 57.24291992 C23.77514648 57.11352539 23.77514648 57.11352539 21.77514648 56.11352539 C22.10514648 54.46352539 22.43514648 52.81352539 22.77514648 51.11352539 C28.52514648 49.11352539 28.52514648 49.11352539 30.77514648 49.11352539 C29.78514648 46.47352539 28.79514648 43.83352539 27.77514648 41.11352539 C19.85514648 40.45352539 11.93514648 39.79352539 3.77514648 39.11352539 C3.11514648 42.08352539 2.45514648 45.05352539 1.77514648 48.11352539 C1.44514648 48.77352539 1.11514648 49.43352539 0.77514648 50.11352539 C2.47670898 50.08258789 2.47670898 50.08258789 4.21264648 50.05102539 C7.77514648 50.11352539 7.77514648 50.11352539 8.77514648 51.11352539 C8.90014648 53.61352539 8.90014648 53.61352539 8.77514648 56.11352539 C7.21907898 57.6695929 5.71557277 57.24323308 3.55639648 57.24633789 C2.2821582 57.24827148 2.2821582 57.24827148 0.98217773 57.25024414 C-0.35780273 57.24444336 -0.35780273 57.24444336 -1.72485352 57.23852539 C-2.61817383 57.24239258 -3.51149414 57.24625977 -4.43188477 57.25024414 C-5.28137695 57.24895508 -6.13086914 57.24766602 -7.00610352 57.24633789 C-7.79049805 57.24520996 -8.57489258 57.24408203 -9.38305664 57.24291992 C-11.22485352 57.11352539 -11.22485352 57.11352539 -12.22485352 56.11352539 C-12.59985352 53.73852539 -12.59985352 53.73852539 -12.22485352 51.11352539 C-11.465354 50.750896 -10.70585449 50.3882666 -9.92333984 50.01464844 C-5.90442789 47.18326624 -5.16194609 43.63067845 -3.67407227 39.07055664 C-3.37040237 38.18695969 -3.06673248 37.30336273 -2.75386047 36.39299011 C-1.78999312 33.57602852 -0.85097126 30.75148822 0.08764648 27.92602539 C0.73771747 26.01206235 1.3893919 24.09864312 2.04272461 22.18579102 C3.63885702 17.50113734 5.21276186 12.80953667 6.77514648 8.11352539 C3.80514648 7.45352539 0.83514648 6.79352539 -2.22485352 6.11352539 C-2.60704119 4.45737882 -2.93880453 2.78895515 -3.22485352 1.11352539 C-2.22485352 0.11352539 -2.22485352 0.11352539 0 0 Z " fill="#0F0F0F" transform="translate(642.224853515625,595.886474609375)"/>
<path d="M0 0 C3.74973906 -0.11622939 7.49901464 -0.1872595 11.25 -0.25 C12.31347656 -0.28351562 13.37695312 -0.31703125 14.47265625 -0.3515625 C15.49746094 -0.36445312 16.52226563 -0.37734375 17.578125 -0.390625 C18.99206543 -0.4220459 18.99206543 -0.4220459 20.43457031 -0.45410156 C23.91460392 0.16189221 24.87979839 1.18002604 27 4 C28.18637105 6.65508336 29.21072283 9.21415238 30.1640625 11.94921875 C30.44220795 12.72127151 30.72035339 13.49332428 31.00692749 14.28877258 C31.59201421 15.92001164 32.17162672 17.55322326 32.74609375 19.18823242 C33.61745677 21.66604997 34.50637215 24.13699229 35.3984375 26.60742188 C35.96720048 28.20014461 36.53494149 29.79323274 37.1015625 31.38671875 C37.49379501 32.47940315 37.49379501 32.47940315 37.89395142 33.59416199 C39.46532147 38.08918166 40.57591894 42.4805956 41.35922241 47.18147278 C41.90609398 49.40549869 41.90609398 49.40549869 45.125 50.5625 C46.07375 50.706875 47.0225 50.85125 48 51 C48.042721 52.66611905 48.04063832 54.33382885 48 56 C46.37799485 57.62200515 44.57976969 57.1299075 42.34375 57.1328125 C40.93416016 57.13474609 40.93416016 57.13474609 39.49609375 57.13671875 C38.50738281 57.13285156 37.51867187 57.12898437 36.5 57.125 C35.51128906 57.12886719 34.52257812 57.13273438 33.50390625 57.13671875 C32.56417969 57.13542969 31.62445312 57.13414062 30.65625 57.1328125 C29.78806641 57.13168457 28.91988281 57.13055664 28.02539062 57.12939453 C26 57 26 57 25 56 C24.875 53.5 24.875 53.5 25 51 C26.96822886 49.03177114 30.34808709 49.33751619 33 49 C32.34 46.03 31.68 43.06 31 40 C23.08 40 15.16 40 7 40 C6.34 42.97 5.68 45.94 5 49 C7.31 49.66 9.62 50.32 12 51 C12.042721 52.66611905 12.04063832 54.33382885 12 56 C11 57 11 57 9.05053711 57.11352539 C7.8015564 57.10567017 7.8015564 57.10567017 6.52734375 57.09765625 C5.62822266 57.09443359 4.72910156 57.09121094 3.80273438 57.08789062 C2.38444336 57.07532227 2.38444336 57.07532227 0.9375 57.0625 C-0.01189453 57.05798828 -0.96128906 57.05347656 -1.93945312 57.04882812 C-4.29303065 57.0370011 -6.64648477 57.02052025 -9 57 C-9.38133299 55.0085944 -9.71325582 53.00720923 -10 51 C-9 50 -9 50 -6.4375 49.9375 C-5.633125 49.958125 -4.82875 49.97875 -4 50 C-3.90058105 49.39849121 -3.80116211 48.79698242 -3.69873047 48.17724609 C-2.52111281 41.6543778 -0.58697788 35.76572348 1.875 29.625 C2.59304131 27.79110561 3.30919856 25.95647238 4.0234375 24.12109375 C4.3647168 23.24565918 4.70599609 22.37022461 5.05761719 21.46826172 C6.87830417 16.69957121 8.44426006 11.86168732 10 7 C6.7 6.67 3.4 6.34 0 6 C0 4.02 0 2.04 0 0 Z " fill="#0F0F0F" transform="translate(521,596)"/>
<path d="M0 0 C3.77076889 -0.05799124 7.54142334 -0.09359306 11.3125 -0.125 C12.38435547 -0.14175781 13.45621094 -0.15851562 14.56054688 -0.17578125 C15.58857422 -0.18222656 16.61660156 -0.18867187 17.67578125 -0.1953125 C18.62364502 -0.20578613 19.57150879 -0.21625977 20.5480957 -0.22705078 C23 0 23 0 26 2 C26.90380859 3.85668945 26.90380859 3.85668945 27.6484375 6.11328125 C27.92905029 6.9427124 28.20966309 7.77214355 28.4987793 8.62670898 C28.93250854 9.95617554 28.93250854 9.95617554 29.375 11.3125 C29.99183266 13.1437881 30.61032347 14.97451852 31.23046875 16.8046875 C31.53130371 17.69768555 31.83213867 18.59068359 32.14208984 19.51074219 C33.59109343 23.71507929 35.24654988 27.82939806 36.890625 31.9609375 C38.10519336 35.28817053 39.01284078 38.64429254 39.9375 42.0625 C41.44250615 47.23955068 41.44250615 47.23955068 45.25 50.8125 C46.1575 51.204375 47.065 51.59625 48 52 C47.67 53.65 47.34 55.3 47 57 C39.74 57 32.48 57 25 57 C25 51 25 51 26 50 C28.67058851 49.85884839 31.32432238 49.95752893 34 50 C33.7834375 49.45730469 33.566875 48.91460938 33.34375 48.35546875 C33.0653125 47.64003906 32.786875 46.92460938 32.5 46.1875 C32.2215625 45.47980469 31.943125 44.77210938 31.65625 44.04296875 C31 42 31 42 31 39 C23.08 39.66 15.16 40.32 7 41 C6.34 43.64 5.68 46.28 5 49 C7.31 49.99 9.62 50.98 12 52 C11.67 53.65 11.34 55.3 11 57 C4.07 57 -2.86 57 -10 57 C-10 55.02 -10 53.04 -10 51 C-9.04738281 50.79632812 -8.09476562 50.59265625 -7.11328125 50.3828125 C-3.789075 49.32646507 -3.789075 49.32646507 -2.85546875 46.3671875 C-2.52482422 44.63855469 -2.52482422 44.63855469 -2.1875 42.875 C-0.56101019 35.39902004 1.95350629 28.38926596 4.6875 21.25 C5.09266846 20.19022949 5.49783691 19.13045898 5.9152832 18.03857422 C6.64836369 16.12641863 7.38417954 14.21530753 8.1237793 12.30566406 C8.79017002 10.55214107 9.40679519 8.77961443 10 7 C6.7 6.67 3.4 6.34 0 6 C0 4.02 0 2.04 0 0 Z " fill="#0F0F0F" transform="translate(403,596)"/>
<path d="M0 0 C2.91319731 3.2083702 5.02506322 6.60996291 7.05859375 10.421875 C7.88520508 11.96101562 7.88520508 11.96101562 8.72851562 13.53125 C9.57446289 15.12453125 9.57446289 15.12453125 10.4375 16.75 C11.5607716 18.84918651 12.68446326 20.9481483 13.80859375 23.046875 C14.34468262 24.05041016 14.88077148 25.05394531 15.43310547 26.08789062 C17.58177492 30.08124201 19.78101437 34.04537214 22 38 C22.03758423 37.07888428 22.03758423 37.07888428 22.07592773 36.13916016 C22.19345264 33.30097366 22.31545526 30.4629956 22.4375 27.625 C22.47681641 26.65949219 22.51613281 25.69398438 22.55664062 24.69921875 C22.82996436 18.43379773 23.32180397 12.23484414 24 6 C21.03 6 18.06 6 15 6 C15 4.02 15 2.04 15 0 C21.93 0 28.86 0 36 0 C36 1.98 36 3.96 36 6 C34.02 6 32.04 6 30 6 C30 23.16 30 40.32 30 58 C28.02 58 26.04 58 24 58 C22.260688 56.00374419 21.21519639 54.42553829 20 52.125 C19.63970703 51.48675293 19.27941406 50.84850586 18.90820312 50.19091797 C17.57689724 47.80866741 16.28821668 45.40583168 15 43 C13.7815117 40.74985827 12.5627424 38.49986868 11.34375 36.25 C9.42163028 32.69719645 7.50591692 29.14124022 5.609375 25.57470703 C5.02671875 24.48013184 4.4440625 23.38555664 3.84375 22.2578125 C3.31974609 21.2692627 2.79574219 20.28071289 2.25585938 19.26220703 C1.19052792 17.09885435 1.19052792 17.09885435 0 16 C-1.05357378 23.15367744 -1.32045599 30.27835896 -1.5625 37.5 C-1.60568359 38.70398438 -1.64886719 39.90796875 -1.69335938 41.1484375 C-1.79873168 44.09886193 -1.90085903 47.04936071 -2 50 C-0.72125 49.979375 0.5575 49.95875 1.875 49.9375 C5.75 49.875 5.75 49.875 8 51 C7.125 55.875 7.125 55.875 6 57 C4.53521494 57.09883336 3.06577042 57.13079289 1.59765625 57.1328125 C0.70755859 57.13410156 -0.18253906 57.13539063 -1.09960938 57.13671875 C-2.03611328 57.13285156 -2.97261719 57.12898437 -3.9375 57.125 C-4.87013672 57.12886719 -5.80277344 57.13273438 -6.76367188 57.13671875 C-7.65505859 57.13542969 -8.54644531 57.13414062 -9.46484375 57.1328125 C-10.285896 57.13168457 -11.10694824 57.13055664 -11.95288086 57.12939453 C-14 57 -14 57 -16 56 C-15.125 51.125 -15.125 51.125 -14 50 C-12.35 50 -10.7 50 -9 50 C-9 35.48 -9 20.96 -9 6 C-10.98 6 -12.96 6 -15 6 C-15.38218767 4.34385343 -15.71395102 2.67542976 -16 1 C-12.68774332 -2.31225668 -3.99467375 -1.07548909 0 0 Z " fill="#0B0B0B" transform="translate(589,596)"/>
<path d="M0 0 C6.60348731 0.148643 6.60348731 0.148643 9.67480469 0.25537109 C11.74210176 0.32278819 13.80839336 0.35941848 15.87646484 0.39404297 C24.71819415 0.6706171 31.09422671 1.24825532 37.64599609 7.63623047 C39.91339058 13.02129238 39.94637001 18.43748039 39.14599609 24.19873047 C36.67918447 28.99828786 34.13833156 32.07492541 29.14599609 34.19873047 C26.94775391 34.42578125 26.94775391 34.42578125 24.59912109 34.39404297 C23.33261719 34.384375 23.33261719 34.384375 22.04052734 34.37451172 C20.73148438 34.349375 20.73148438 34.349375 19.39599609 34.32373047 C18.50783203 34.31470703 17.61966797 34.30568359 16.70458984 34.29638672 C14.51827598 34.27287797 12.33210125 34.23700857 10.14599609 34.19873047 C10.14599609 38.81873047 10.14599609 43.43873047 10.14599609 48.19873047 C14.43599609 48.19873047 18.72599609 48.19873047 23.14599609 48.19873047 C23.14599609 49.84873047 23.14599609 51.49873047 23.14599609 53.19873047 C22.14599609 54.19873047 22.14599609 54.19873047 19.4621582 54.31225586 C18.29434814 54.30701904 17.12653809 54.30178223 15.92333984 54.29638672 C14.66328125 54.29316406 13.40322266 54.28994141 12.10498047 54.28662109 C10.76448501 54.2782645 9.42399021 54.26979954 8.08349609 54.26123047 C6.73909668 54.25621707 5.3946955 54.25165389 4.05029297 54.24755859 C0.74881669 54.23572535 -2.55257194 54.21924018 -5.85400391 54.19873047 C-5.85400391 52.21873047 -5.85400391 50.23873047 -5.85400391 48.19873047 C-2.55400391 48.19873047 0.74599609 48.19873047 4.14599609 48.19873047 C4.14599609 34.66873047 4.14599609 21.13873047 4.14599609 7.19873047 C0.84599609 7.19873047 -2.45400391 7.19873047 -5.85400391 7.19873047 C-4.76980411 0.33213178 -4.76980411 0.33213178 0 0 Z " fill="#0A0A0A" transform="translate(549.85400390625,475.80126953125)"/>
<path d="M0 0 C1.27423828 -0.00193359 1.27423828 -0.00193359 2.57421875 -0.00390625 C3.91419922 0.00189453 3.91419922 0.00189453 5.28125 0.0078125 C6.17457031 0.00394531 7.06789063 0.00007812 7.98828125 -0.00390625 C8.83777344 -0.00261719 9.68726563 -0.00132812 10.5625 0 C11.34689453 0.00112793 12.13128906 0.00225586 12.93945312 0.00341797 C14.78125 0.1328125 14.78125 0.1328125 15.78125 1.1328125 C15.82188832 2.79898365 15.823971 4.46669345 15.78125 6.1328125 C13.14125 6.1328125 10.50125 6.1328125 7.78125 6.1328125 C7.78125 12.0728125 7.78125 18.0128125 7.78125 24.1328125 C15.70125 24.1328125 23.62125 24.1328125 31.78125 24.1328125 C31.78125 18.1928125 31.78125 12.2528125 31.78125 6.1328125 C29.80125 6.1328125 27.82125 6.1328125 25.78125 6.1328125 C25.39906233 4.47666593 25.06729898 2.80824226 24.78125 1.1328125 C25.78125 0.1328125 25.78125 0.1328125 27.73071289 0.01928711 C28.5633667 0.02452393 29.39602051 0.02976074 30.25390625 0.03515625 C31.15302734 0.03837891 32.05214844 0.04160156 32.97851562 0.04492188 C34.39680664 0.05749023 34.39680664 0.05749023 35.84375 0.0703125 C36.79314453 0.07482422 37.74253906 0.07933594 38.72070312 0.08398438 C41.07428065 0.0958114 43.42773477 0.11229225 45.78125 0.1328125 C45.78125 2.1128125 45.78125 4.0928125 45.78125 6.1328125 C43.80125 6.1328125 41.82125 6.1328125 39.78125 6.1328125 C39.78125 20.6528125 39.78125 35.1728125 39.78125 50.1328125 C42.75125 50.6278125 42.75125 50.6278125 45.78125 51.1328125 C45.823971 52.79893155 45.82188832 54.46664135 45.78125 56.1328125 C44.78125 57.1328125 44.78125 57.1328125 42.83178711 57.24633789 C41.9991333 57.24110107 41.16647949 57.23586426 40.30859375 57.23046875 C39.40947266 57.22724609 38.51035156 57.22402344 37.58398438 57.22070312 C36.16569336 57.20813477 36.16569336 57.20813477 34.71875 57.1953125 C33.76935547 57.19080078 32.81996094 57.18628906 31.84179688 57.18164062 C29.48821935 57.1698136 27.13476523 57.15333275 24.78125 57.1328125 C24.78125 55.1528125 24.78125 53.1728125 24.78125 51.1328125 C27.09125 50.8028125 29.40125 50.4728125 31.78125 50.1328125 C31.78125 43.8628125 31.78125 37.5928125 31.78125 31.1328125 C23.86125 31.1328125 15.94125 31.1328125 7.78125 31.1328125 C7.78125 37.4028125 7.78125 43.6728125 7.78125 50.1328125 C10.09125 50.1328125 12.40125 50.1328125 14.78125 50.1328125 C15.78125 51.1328125 15.78125 51.1328125 15.90625 53.6328125 C15.78125 56.1328125 15.78125 56.1328125 14.78125 57.1328125 C13.2925314 57.21950682 11.799805 57.23984744 10.30859375 57.23046875 C9.40947266 57.22724609 8.51035156 57.22402344 7.58398438 57.22070312 C6.16569336 57.20813477 6.16569336 57.20813477 4.71875 57.1953125 C3.76935547 57.19080078 2.81996094 57.18628906 1.84179688 57.18164062 C-0.51178065 57.1698136 -2.86523477 57.15333275 -5.21875 57.1328125 C-5.21875 54.8228125 -5.21875 52.5128125 -5.21875 50.1328125 C-3.23875 50.1328125 -1.25875 50.1328125 0.78125 50.1328125 C0.78125 35.6128125 0.78125 21.0928125 0.78125 6.1328125 C-0.86875 6.1328125 -2.51875 6.1328125 -4.21875 6.1328125 C-4.60093767 4.47666593 -4.93270102 2.80824226 -5.21875 1.1328125 C-3.66268249 -0.42325501 -2.15917629 0.00310481 0 0 Z " fill="#0A0A0A" transform="translate(697.21875,595.8671875)"/>
<path d="M0 0 C3.06345144 -0.10822792 6.1230601 -0.18741479 9.1875 -0.25 C10.05181641 -0.28351563 10.91613281 -0.31703125 11.80664062 -0.3515625 C12.64775391 -0.36445313 13.48886719 -0.37734375 14.35546875 -0.390625 C15.51018677 -0.4220459 15.51018677 -0.4220459 16.68823242 -0.45410156 C20.07894222 0.21193711 21.58859012 1.53437632 24 4 C25.212855 6.58936495 26.16510217 8.95715886 27.04296875 11.65234375 C27.42477043 12.7580648 27.42477043 12.7580648 27.81428528 13.88612366 C28.62060219 16.23170093 29.40446612 18.58406023 30.1875 20.9375 C30.72440156 22.5154885 31.26279854 24.09296903 31.80273438 25.66992188 C32.56459829 27.89563093 33.32427518 30.12180105 34.07206726 32.35227966 C35.02415392 35.18957367 35.99231441 37.98195102 37.1652832 40.73657227 C38 43 38 43 38 47 C39.65 47 41.3 47 43 47 C43.042721 48.66611905 43.04063832 50.33382885 43 52 C41.0604886 53.9395114 38.1879288 53.13256629 35.61132812 53.13671875 C34.3496582 53.13091797 34.3496582 53.13091797 33.0625 53.125 C31.80663086 53.13080078 31.80663086 53.13080078 30.52539062 53.13671875 C29.72423828 53.13542969 28.92308594 53.13414062 28.09765625 53.1328125 C27.36039307 53.13168457 26.62312988 53.13055664 25.86352539 53.12939453 C24 53 24 53 22 52 C22.33 50.35 22.66 48.7 23 47 C25.31 46.67 27.62 46.34 30 46 C29.67 45.46375 29.34 44.9275 29 44.375 C28 42 28 42 28 36 C20.74 36.33 13.48 36.66 6 37 C5.01 39.97 4.02 42.94 3 46 C5.31 46.33 7.62 46.66 10 47 C10.042721 48.66611905 10.04063832 50.33382885 10 52 C9 53 9 53 7.23413086 53.11352539 C6.48526611 53.10828857 5.73640137 53.10305176 4.96484375 53.09765625 C4.15595703 53.09443359 3.34707031 53.09121094 2.51367188 53.08789062 C1.66353516 53.07951172 0.81339844 53.07113281 -0.0625 53.0625 C-0.91650391 53.05798828 -1.77050781 53.05347656 -2.65039062 53.04882812 C-4.76695663 53.03700373 -6.88348685 53.01906769 -9 53 C-9.38218767 51.34385343 -9.71395102 49.67542976 -10 48 C-9 47 -9 47 -6.4375 46.9375 C-5.633125 46.958125 -4.82875 46.97875 -4 47 C-3.96003906 45.84628906 -3.92007813 44.69257812 -3.87890625 43.50390625 C-3.03762865 35.93240781 0.24293007 28.94920939 3.0625 21.9375 C3.63707415 20.48542388 4.21065062 19.03295257 4.78320312 17.58007812 C6.1773338 14.04872113 7.58488254 10.52299649 9 7 C5.7 6.67 2.4 6.34 -1 6 C-0.67 4.02 -0.34 2.04 0 0 Z " fill="#101010" transform="translate(605,477)"/>
<path d="M0 0 C31.35 0 62.7 0 95 0 C95 78.87 95 157.74 95 239 C23.09994438 239 23.09994438 239 -11.15003586 238.81480408 C-17.71635964 238.7796776 -24.28269364 238.74676018 -30.84902954 238.71398926 C-41.19197543 238.66210968 -51.53491264 238.60868193 -61.87784731 238.5546174 C-73.70251206 238.49288905 -85.52718597 238.43300924 -97.35186076 238.37324238 C-121.56791748 238.25080506 -145.78396253 238.12618387 -170 238 C-170 237.67 -170 237.34 -170 237 C-83.21 237 3.58 237 93 237 C93 159.45 93 81.9 93 2 C62.97 2 32.94 2 2 2 C2 46.88 2 91.76 2 138 C1.01 137.34 0.02 136.68 -1 136 C-1.35352612 133.62994194 -1.35352612 133.62994194 -1.32279968 130.59640503 C-1.31636444 128.87579361 -1.31636444 128.87579361 -1.30979919 127.12042236 C-1.28966263 125.85591248 -1.26952606 124.59140259 -1.2487793 123.28857422 C-1.23807508 121.94840449 -1.22869712 120.6082236 -1.22055054 119.26803589 C-1.19461903 115.62342095 -1.1500638 111.97924033 -1.10225272 108.33485556 C-1.05545595 104.52859859 -1.02566347 100.72221024 -0.99409485 96.915802 C-0.93169375 89.70502294 -0.85392118 82.49449423 -0.77067453 75.28392899 C-0.65909054 65.54230063 -0.57115207 55.80046101 -0.48191547 46.0586071 C-0.34065335 30.70549268 -0.16771398 15.352901 0 0 Z " fill="#5A5A5A" transform="translate(398,738)"/>
<path d="M0 0 C32.01 0 64.02 0 97 0 C97.77619335 3.10477339 98.12467248 5.12228515 98.12304783 8.20912552 C98.1250387 9.04639931 98.12702957 9.8836731 98.12908077 10.74631882 C98.12616811 11.6604517 98.12325544 12.57458458 98.12025452 13.51641846 C98.12111053 14.48936859 98.12196655 15.46231873 98.12284851 16.4647522 C98.12450714 19.74377254 98.11897445 23.02274211 98.11352539 26.30175781 C98.11321915 28.68517429 98.11335239 31.06859086 98.11389065 33.45200729 C98.11411678 39.84556585 98.10831299 46.23910576 98.10128021 52.63265991 C98.09559325 58.62799133 98.09531752 64.62331818 98.09460449 70.61865234 C98.08935322 88.16243737 98.07539212 105.70621892 98.0625 123.25 C98.041875 162.4375 98.02125 201.625 98 242 C11.54 242 -74.92 242 -164 242 C-164 241.67 -164 241.34 -164 241 C-127.46291947 240.14078809 -90.93684934 239.90140738 -54.390625 239.90234375 C-52.90043366 239.90231602 -52.90043366 239.90231602 -51.38013744 239.90228772 C-34.33674672 239.90280022 -17.29338611 239.92181931 -0.25 239.9375 C47.39375 239.9684375 47.39375 239.9684375 96 240 C96 161.13 96 82.26 96 1 C64.65 1 33.3 1 1 1 C1 45.88 1 90.76 1 137 C0.67 137 0.34 137 0 137 C0 91.79 0 46.58 0 0 Z " fill="#D8D8D8" transform="translate(397,737)"/>
<path d="M0 0 C32.01 0 64.02 0 97 0 C98 1 98 1 98.12304783 3.2626276 C98.12212604 4.27199092 98.12120424 5.28135424 98.12025452 6.32130432 C98.12231651 8.05247498 98.12231651 8.05247498 98.12442017 9.81861877 C98.11902725 11.73480263 98.11902725 11.73480263 98.11352539 13.68969727 C98.11324352 15.03958128 98.11340125 16.38946544 98.1139679 17.73934937 C98.11425587 21.41480608 98.10835916 25.09023043 98.10139394 28.7656796 C98.09516038 32.60273149 98.0945566 36.43978404 98.09336853 40.27684021 C98.09025522 47.54771218 98.08204183 54.81856919 98.07201904 62.08943456 C98.0608579 70.36499352 98.05534745 78.64055318 98.05032361 86.91611779 C98.03985922 103.94408719 98.02225978 120.97204202 98 138 C97.67 138 97.34 138 97 138 C97 93.12 97 48.24 97 2 C65.65 2 34.3 2 2 2 C2 80.87 2 159.74 2 241 C88.13 241 174.26 241 263 241 C263 241.33 263 241.66 263 242 C241.70267689 242.13372644 220.40533546 242.26414372 199.10797119 242.39115143 C189.20755089 242.45026131 179.3071378 242.5102529 169.40673828 242.57275391 C160.72468889 242.62756078 152.04262911 242.6802742 143.3605547 242.73096704 C138.8115374 242.75758802 134.26252859 242.78491506 129.71353149 242.81480408 C86.47527579 243.0943803 43.24035935 243 0 243 C0 162.81 0 82.62 0 0 Z " fill="#D7D7D7" transform="translate(585,736)"/>
<path d="M0 0 C88.11 0 176.22 0 267 0 C267 77.29927062 267 77.29927062 266.79807091 102.66925406 C266.76818584 106.49789838 266.74130587 110.32656432 266.71398926 114.15522766 C266.66279298 121.27516263 266.6092329 128.39507734 266.5546174 135.51498681 C266.48026539 145.22811587 266.4099834 154.94127456 266.33936501 164.65443134 C266.22937332 179.76964553 266.11430794 194.8848164 266 210 C235.31 210 204.62 210 173 210 C173 170.73 173 131.46 173 91 C173.33 91 173.66 91 174 91 C174 129.94 174 168.88 174 209 C204.03 209 234.06 209 265 209 C265 140.69 265 72.38 265 2 C178.21 2 91.42 2 2 2 C1.67 25.43 1.34 48.86 1 73 C0.67 73 0.34 73 0 73 C0 48.91 0 24.82 0 0 Z " fill="#565656" transform="translate(226,175)"/>
<path d="M0 0 C0.66 -0.99 1.32 -1.98 2 -3 C3.98 -3 5.96 -3 8 -3 C8 3.93 8 10.86 8 18 C5.03 18.495 5.03 18.495 2 19 C1.54625 17.948125 1.0925 16.89625 0.625 15.8125 C0.35042969 15.17699219 0.07585937 14.54148437 -0.20703125 13.88671875 C-0.86706264 12.31629924 -1.47198692 10.72285893 -2.0625 9.125 C-2.80419312 6.83214762 -2.80419312 6.83214762 -5 6 C-14.32017273 4.89089134 -14.32017273 4.89089134 -22.6875 8.125 C-27.52427604 14.13828914 -28.50229128 18.8827718 -28.4375 26.375 C-28.45748047 27.18710937 -28.47746094 27.99921875 -28.49804688 28.8359375 C-28.4933472 34.70112848 -27.2453732 39.08489498 -24 44 C-20.90359223 47.00257723 -18.03846965 47.24205975 -13.875 47.4375 C-8.58717365 47.31602291 -4.33959688 45.95194612 0.4921875 43.875 C3.15690146 42.94525557 5.19973515 42.83941133 8 43 C8.495 45.475 8.495 45.475 9 48 C2.47983028 54.18580204 -3.64979045 56.13799676 -12.625 56.375 C-20.56311404 56.15347124 -25.53354583 54.02208843 -31.4296875 48.66796875 C-37.93066704 41.76269943 -39.42631691 33.25014718 -39.25390625 24.06640625 C-38.50948092 15.07603882 -35.3110916 7.87646279 -28.625 1.75 C-20.08396387 -5.13328229 -9.57127421 -4.33416191 0 0 Z " fill="#101010" transform="translate(377,598)"/>
<path d="M0 0 C6.78287956 5.90293843 10.43625668 11.98405345 11.2734375 20.91796875 C11.49036044 27.50074565 10.67691594 32.98563041 8 39 C7.73316406 39.63808594 7.46632813 40.27617188 7.19140625 40.93359375 C4.17012082 47.17758363 -0.95982582 49.69706821 -7.0625 52.3125 C-14.63264409 54.08423585 -19.50129294 52.41603511 -26.25 48.84765625 C-30.18344074 46.20487575 -32.15951353 43.30275892 -34 39 C-34.35964844 38.30648437 -34.71929687 37.61296875 -35.08984375 36.8984375 C-36.46557767 32.51734492 -36.40882173 28.25371837 -36.4375 23.6875 C-36.48680664 22.31948242 -36.48680664 22.31948242 -36.53710938 20.92382812 C-36.59807798 13.19190047 -34.27526174 8.6643317 -29.19140625 2.9765625 C-21.02351934 -3.80062903 -9.42301486 -5.94839616 0 0 Z M-28.19921875 12.6796875 C-29.47127947 16.36556101 -29.32813105 20.00475266 -29.3125 23.875 C-29.32861328 24.66519531 -29.34472656 25.45539063 -29.36132812 26.26953125 C-29.36623355 32.16585403 -28.15956334 36.07646857 -24.59765625 40.8984375 C-20.95500039 44.40206069 -18.07165634 45.4834048 -13 45.75 C-7.92834366 45.4834048 -5.04499961 44.40206069 -1.40234375 40.8984375 C2.61569629 35.45897382 3.47876909 31.06051264 3.375 24.5 C3.38660156 23.76652344 3.39820313 23.03304688 3.41015625 22.27734375 C3.38059183 16.76850734 2.3350661 12.56005944 -1.5 8.35546875 C-6.44068145 4.50842772 -10.19422848 3.4795416 -16.35546875 3.515625 C-21.65932903 4.48708538 -25.16242022 8.42619118 -28.19921875 12.6796875 Z " fill="#161616" transform="translate(526,479)"/>
<path d="M0 0 C0.886875 0.495 1.77375 0.99 2.6875 1.5 C3.0175 0.51 3.3475 -0.48 3.6875 -1.5 C5.35361905 -1.542721 7.02132885 -1.54063832 8.6875 -1.5 C10.2095959 0.0220959 9.81709521 1.38210082 9.8203125 3.5 C9.82224609 4.7065625 9.82224609 4.7065625 9.82421875 5.9375 C9.82035156 6.783125 9.81648438 7.62875 9.8125 8.5 C9.81830078 9.7684375 9.81830078 9.7684375 9.82421875 11.0625 C9.82292969 11.866875 9.82164062 12.67125 9.8203125 13.5 C9.81918457 14.2425 9.81805664 14.985 9.81689453 15.75 C9.6875 17.5 9.6875 17.5 8.6875 18.5 C6.68791636 18.54080783 4.68704746 18.54254356 2.6875 18.5 C2.50574219 17.87351562 2.32398438 17.24703125 2.13671875 16.6015625 C1.75966797 15.37566406 1.75966797 15.37566406 1.375 14.125 C1.13136719 13.31289063 0.88773437 12.50078125 0.63671875 11.6640625 C-0.22618185 9.16815371 -0.22618185 9.16815371 -3.3125 7.5 C-7.96601665 6.86207203 -13.01687607 6.44182668 -17.36328125 8.4453125 C-20.60299398 11.00171113 -22.12392764 13.63713985 -23.3125 17.5 C-23.5538163 20.32003349 -23.69335429 22.99473703 -23.6875 25.8125 C-23.68661377 26.56926025 -23.68572754 27.32602051 -23.68481445 28.10571289 C-23.56235902 33.8636047 -22.72220278 37.72641611 -19.3125 42.5 C-15.68030895 44.9214607 -13.82091442 44.79869516 -9.5 44.8125 C-8.29730469 44.82925781 -7.09460938 44.84601562 -5.85546875 44.86328125 C-2.01998308 44.47000653 0.32629701 43.31609553 3.6875 41.5 C7.0625 41.3125 7.0625 41.3125 9.6875 41.5 C9.6875 43.48 9.6875 45.46 9.6875 47.5 C1.35359387 52.60239151 -6.47126588 54.75800063 -16.3125 53.5 C-22.18838226 51.30267508 -27.00885512 46.77965677 -30.3125 41.5 C-34.27255772 32.75798579 -34.47182728 22.87388031 -32.13671875 13.6328125 C-29.86783803 7.76168039 -25.4819541 2.99287439 -20.3125 -0.5 C-14.09233848 -2.57338717 -6.06873167 -2.6418298 0 0 Z " fill="#151515" transform="translate(469.3125,477.5)"/>
<path d="M0 0 C2.84625 -0.0825 5.6925 -0.165 8.625 -0.25 C9.51010254 -0.28641602 10.39520508 -0.32283203 11.30712891 -0.36035156 C16.68827905 -0.43544301 19.75397618 0.38351283 24 4 C25.22691067 6.45382134 25.20175931 8.19984103 25.25 10.9375 C25.27578125 11.81277344 25.3015625 12.68804688 25.328125 13.58984375 C25 16 25 16 23.671875 17.75390625 C20.72764542 19.94832036 18.08968468 20.12140728 14.55078125 20.09765625 C13.78677002 20.09515869 13.02275879 20.09266113 12.2355957 20.09008789 C11.27097412 20.08098389 10.30635254 20.07187988 9.3125 20.0625 C4.7028125 20.0315625 4.7028125 20.0315625 0 20 C0 13.4 0 6.8 0 0 Z " fill="#F5F5F5" transform="translate(471,626)"/>
<path d="M0 0 C3.5578125 -0.0928125 3.5578125 -0.0928125 7.1875 -0.1875 C8.29387817 -0.22846802 8.29387817 -0.22846802 9.42260742 -0.27026367 C13.83935173 -0.32573392 16.52119467 0.27164994 20 3 C22.95592813 7.4338922 22.77957615 11.8002271 22 17 C19.40239199 19.94863612 17.69064777 20.76978408 14 22 C9.33032246 22.13590447 4.67262015 22.04286807 0 22 C0 14.74 0 7.48 0 0 Z " fill="#F8F8F8" transform="translate(560,483)"/>
<path d="M0 0 C2.51625 -0.103125 5.0325 -0.20625 7.625 -0.3125 C8.79603271 -0.38078003 8.79603271 -0.38078003 9.99072266 -0.45043945 C13.90530851 -0.5274591 16.35189553 -0.15324463 19.48046875 2.3046875 C22 5 22 5 22.6875 8.4375 C21.87651123 12.63989638 20.41125838 15.4305268 17 18 C14.01494553 18.71689318 11.23489275 18.57269709 8.1875 18.375 C5.485625 18.25125 2.78375 18.1275 0 18 C0 12.06 0 6.12 0 0 Z " fill="#F2F2F2" transform="translate(471,602)"/>
<path d="M0 0 C0.99 0.33 1.98 0.66 3 1 C4.19639472 3.69337618 5.19323512 6.27891094 6.125 9.0625 C6.38925781 9.80177734 6.65351562 10.54105469 6.92578125 11.30273438 C8.68177032 16.39688541 9.30082462 20.40659693 10 26 C4.06 26 -1.88 26 -8 26 C-6.94736884 19.77990678 -5.43213266 13.90997969 -3.4375 7.9375 C-3.10455933 6.93674438 -3.10455933 6.93674438 -2.76489258 5.91577148 C-1.13506369 1.13506369 -1.13506369 1.13506369 0 0 Z " fill="#EFEFEF" transform="translate(539,602)"/>
<path d="M0 0 C3 1 3 1 4.5703125 4.0625 C5.10338319 5.36904252 5.62085065 6.68202764 6.125 8 C6.39070801 8.67683838 6.65641602 9.35367676 6.93017578 10.05102539 C8.82286506 15.06252703 9.81122366 19.61987439 10 25 C4.06 25 -1.88 25 -8 25 C-2.6875 2.6875 -2.6875 2.6875 0 0 Z " fill="#F0F0F0" transform="translate(657,603)"/>
<path d="M0 0 C3 1 3 1 3.9831543 2.88598633 C4.3994812 4.09677856 4.3994812 4.09677856 4.82421875 5.33203125 C5.13037109 6.21310547 5.43652344 7.09417969 5.75195312 8.00195312 C6.06068359 8.92943359 6.36941406 9.85691406 6.6875 10.8125 C7.00783203 11.72837891 7.32816406 12.64425781 7.65820312 13.58789062 C9.04952271 17.66098613 10 20.6423868 10 25 C4.06 25 -1.88 25 -8 25 C-4.6 4.6 -4.6 4.6 0 0 Z " fill="#F0F0F0" transform="translate(421,603)"/>
<path d="M0 0 C4.37520675 3.50577464 5.35428338 7.3614805 6.75 12.5625 C6.97042969 13.33013672 7.19085937 14.09777344 7.41796875 14.88867188 C8.29163043 18.00075247 9 20.7533259 9 24 C3.39 24 -2.22 24 -8 24 C-4.25531915 4.25531915 -4.25531915 4.25531915 0 0 Z " fill="#EFEFEF" transform="translate(621,483)"/>
</svg>
