<?xml version="1.0" encoding="UTF-8"?>
<svg version="1.1" xmlns="http://www.w3.org/2000/svg" width="1079" height="1163">
<path d="M0 0 C356.07 0 712.14 0 1079 0 C1079 383.79 1079 767.58 1079 1163 C722.93 1163 366.86 1163 0 1163 C0 779.21 0 395.42 0 0 Z " fill="#000000" transform="translate(0,0)"/>
<path d="M0 0 C356.07 0 712.14 0 1079 0 C1079 383.79 1079 767.58 1079 1163 C722.93 1163 366.86 1163 0 1163 C0 779.21 0 395.42 0 0 Z M98 80 C98 407.36 98 734.72 98 1072 C389.72 1072 681.44 1072 982 1072 C982 744.64 982 417.28 982 80 C690.28 80 398.56 80 98 80 Z " fill="#000000" transform="translate(0,0)"/>
<path d="M0 0 C88.11 0 176.22 0 267 0 C267 264.66 267 529.32 267 802 C178.89 802 90.78 802 0 802 C0 723.13 0 644.26 0 563 C31.35 563 62.7 563 95 563 C95 607.88 95 652.76 95 699 C125.03 699 155.06 699 186 699 C186 499.02 186 299.04 186 93 C156.3 93 126.6 93 96 93 C96 132.27 96 171.54 96 212 C64.32 212 32.64 212 0 212 C0 142.04 0 72.08 0 0 Z " fill="#FEFEFE" transform="translate(587,175)"/>
<path d="M0 0 C88.11 0 176.22 0 267 0 C267 69.96 267 139.92 267 212 C235.32 212 203.64 212 171 212 C171 172.73 171 133.46 171 93 C141.3 93 111.6 93 81 93 C81 292.98 81 492.96 81 699 C111.03 699 141.06 699 172 699 C172 654.12 172 609.24 172 563 C203.35 563 234.7 563 267 563 C267 641.87 267 720.74 267 802 C178.89 802 90.78 802 0 802 C0 537.34 0 272.68 0 0 Z " fill="#F9F9F9" transform="translate(226,175)"/>
<path d="M0 0 C291.72 0 583.44 0 884 0 C884 327.36 884 654.72 884 992 C592.28 992 300.56 992 0 992 C0 664.64 0 337.28 0 0 Z M11 10 C11 330.76 11 651.52 11 982 C295.79 982 580.58 982 874 982 C874 661.24 874 340.48 874 10 C589.21 10 304.42 10 11 10 Z " fill="#F2F2F2" transform="translate(98,80)"/>
<path d="M0 0 C88.11 0 176.22 0 267 0 C267 69.96 267 139.92 267 212 C235.32 212 203.64 212 171 212 C171 172.73 171 133.46 171 93 C141.3 93 111.6 93 81 93 C81 292.98 81 492.96 81 699 C111.03 699 141.06 699 172 699 C172 654.12 172 609.24 172 563 C203.35 563 234.7 563 267 563 C267 641.87 267 720.74 267 802 C178.89 802 90.78 802 0 802 C0 537.34 0 272.68 0 0 Z M2 2 C2 265.34 2 528.68 2 800 C88.79 800 175.58 800 265 800 C265 722.45 265 644.9 265 565 C234.97 565 204.94 565 174 565 C174 609.88 174 654.76 174 701 C142.65 701 111.3 701 79 701 C79 499.7 79 298.4 79 91 C110.35 91 141.7 91 174 91 C174 129.94 174 168.88 174 209 C204.03 209 234.06 209 265 209 C265 140.69 265 72.38 265 2 C178.21 2 91.42 2 2 2 Z " fill="#909090" transform="translate(226,175)"/>
<path d="M0 0 C0.94101551 0.00149235 1.88203101 0.00298469 2.85156214 0.00452226 C3.89240155 0.01132605 4.93324096 0.01812984 6.00562096 0.02513981 C7.65589761 0.0299835 7.65589761 0.0299835 9.33951318 0.03492504 C13.05079035 0.04705338 16.76199543 0.06641509 20.47324181 0.08570194 C23.12374886 0.0958391 25.77425458 0.1055778 28.42476463 0.11481571 C34.14385849 0.13554725 39.86292706 0.15997674 45.58199501 0.18689632 C53.85087342 0.22581252 62.11976684 0.25918519 70.38867454 0.29119159 C83.80343743 0.34326715 97.21817743 0.39984502 110.63290977 0.4592371 C123.66642935 0.5169318 136.69995509 0.57251674 149.73349571 0.62525272 C150.53647208 0.62850244 151.33944844 0.63175216 152.16675742 0.63510036 C156.19493118 0.65138969 160.2231051 0.66763743 164.25127912 0.68386447 C197.68515841 0.81860296 231.11900311 0.960641 264.55283165 1.10743046 C265.35078236 6.71428203 265.69625721 12.1285487 265.67981529 17.78717899 C265.68137528 18.62423681 265.68293527 19.46129463 265.68454254 20.32371783 C265.68850871 23.10873668 265.68538001 25.89370034 265.68222618 28.67871952 C265.68358212 30.68323644 265.68536315 32.68775312 265.68753624 34.69226933 C265.6920864 40.12164931 265.69033126 45.55101024 265.68715715 50.98039055 C265.68462248 56.6639934 265.68697405 62.34759463 265.68854332 68.03119755 C265.69036118 77.57060889 265.68796813 87.11001248 265.68320274 96.64942265 C265.67775462 107.68307148 265.67952831 118.71670185 265.68502915 129.75035024 C265.68956375 139.2248072 265.69020931 148.69925861 265.68759048 158.17371631 C265.68603043 163.83216864 265.68582666 169.49061229 265.68912697 175.14906406 C265.69201091 180.46453563 265.6900203 185.77998332 265.68423271 191.09545231 C265.68290821 193.04819798 265.68329401 195.00094565 265.68549538 196.95369053 C265.6882188 199.61435984 265.68481111 202.27495212 265.67981529 204.93561649 C265.68204601 205.71226162 265.68427674 206.48890675 265.68657506 207.28908658 C265.67372045 210.80691356 265.41347179 213.6648699 264.55283165 217.10743046 C231.88283165 217.10743046 199.21283165 217.10743046 165.55283165 217.10743046 C164.58446808 214.20233976 164.44068573 212.43416842 164.470541 209.41878605 C164.47758049 208.45544849 164.48461998 207.49211094 164.49187279 206.49958134 C164.5048188 205.44438297 164.51776482 204.38918461 164.53110313 203.30201054 C164.54071068 202.18966541 164.55031822 201.07732029 164.5602169 199.93126774 C164.59325626 196.24643567 164.63356997 192.56172033 164.6739254 188.87696171 C164.69822168 186.32534544 164.72206548 183.77372483 164.74547386 181.22210026 C164.80193213 175.18727552 164.86296149 169.15251367 164.9261952 163.1177575 C164.99793192 156.24724011 165.06384494 149.37667074 165.12926567 142.50609076 C165.26396837 128.37313654 165.40599471 114.24026344 165.55283165 100.10743046 C165.88283165 100.10743046 166.21283165 100.10743046 166.55283165 100.10743046 C166.55283165 138.05743046 166.55283165 176.00743046 166.55283165 215.10743046 C198.23283165 215.10743046 229.91283165 215.10743046 262.55283165 215.10743046 C262.55283165 145.14743046 262.55283165 75.18743046 262.55283165 3.10743046 C174.44283165 3.10743046 86.33283165 3.10743046 -4.44716835 3.10743046 C-4.44716835 267.76743046 -4.44716835 532.42743046 -4.44716835 805.10743046 C83.66283165 805.10743046 171.77283165 805.10743046 262.55283165 805.10743046 C262.55283165 726.23743046 262.55283165 647.36743046 262.55283165 566.10743046 C231.20283165 566.10743046 199.85283165 566.10743046 167.55283165 566.10743046 C167.55283165 610.98743046 167.55283165 655.86743046 167.55283165 702.10743046 C137.52283165 702.10743046 107.49283165 702.10743046 76.55283165 702.10743046 C76.55283165 502.12743046 76.55283165 302.14743046 76.55283165 96.10743046 C106.25283165 96.10743046 135.95283165 96.10743046 166.55283165 96.10743046 C166.22283165 97.09743046 165.89283165 98.08743046 165.55283165 99.10743046 C136.84283165 98.77743046 108.13283165 98.44743046 78.55283165 98.10743046 C78.55283165 296.76743046 78.55283165 495.42743046 78.55283165 700.10743046 C107.26283165 700.10743046 135.97283165 700.10743046 165.55283165 700.10743046 C165.22283165 699.44743046 164.89283165 698.78743046 164.55283165 698.10743046 C164.455443 696.38064713 164.42214121 694.65009613 164.41911888 692.92057133 C164.41272141 691.27173702 164.41272141 691.27173702 164.40619469 689.58959293 C164.40664787 688.37812092 164.40710106 687.1666489 164.40756798 685.91846561 C164.40420937 684.64688099 164.40085075 683.37529636 164.39739037 682.06517887 C164.38854022 678.57133371 164.38621181 675.07751303 164.38557458 671.58365774 C164.38462606 668.66864175 164.38094838 665.75363148 164.37740248 662.83861768 C164.36925384 655.96142212 164.3668186 649.08423966 164.36752892 642.20703983 C164.36812962 635.10998876 164.35758024 628.01301372 164.34178525 620.91598189 C164.32871369 614.82590458 164.32334487 608.73585213 164.32398432 602.64576089 C164.32423945 599.00710879 164.32138017 595.36852421 164.31080627 591.72988605 C164.29933542 587.67159922 164.30386976 583.61348289 164.30991173 579.55518436 C164.30429222 578.34776081 164.29867271 577.14033726 164.29288292 575.89632511 C164.29707741 574.79146259 164.3012719 573.68660007 164.30559349 572.54825687 C164.30504872 571.58850264 164.30450396 570.6287484 164.30394268 569.6399107 C164.55283165 567.10743046 164.55283165 567.10743046 166.55283165 563.10743046 C198.56283165 563.10743046 230.57283165 563.10743046 263.55283165 563.10743046 C265.80283165 569.85743046 265.80283165 569.85743046 265.78330994 573.56265163 C265.78380718 574.40390717 265.78430443 575.2451627 265.78481674 576.11191082 C265.77510157 577.02021837 265.76538639 577.92852592 265.75537682 578.86435795 C265.75301521 579.83902012 265.75065361 580.81368229 265.74822044 581.81787968 C265.73781817 585.09078316 265.71288829 588.36341528 265.68808556 591.63623905 C265.67744977 594.01989534 265.66770482 596.40355574 265.65877914 598.78721905 C265.63240786 605.1724323 265.5938391 611.55751749 265.55275536 617.94265079 C265.51605313 623.93350409 265.49033552 629.92438482 265.46372032 635.91529179 C265.37946829 653.43772793 265.27757074 670.96007563 265.17783165 688.48243046 C264.97158165 727.62868046 264.76533165 766.77493046 264.55283165 807.10743046 C175.12283165 807.10743046 85.69283165 807.10743046 -6.44716835 807.10743046 C-6.44716835 541.12743046 -6.44716835 275.14743046 -6.44716835 1.10743046 C-4.06935658 -0.08147543 -2.65277703 -0.01110465 0 0 Z " fill="#151515" transform="translate(230.44716835021973,171.89256954193115)"/>
<path d="M0 0 C88.11 0 176.22 0 267 0 C267 264.66 267 529.32 267 802 C178.89 802 90.78 802 0 802 C0 723.13 0 644.26 0 563 C31.35 563 62.7 563 95 563 C95 607.88 95 652.76 95 699 C125.03 699 155.06 699 186 699 C186 499.02 186 299.04 186 93 C156.3 93 126.6 93 96 93 C96 132.27 96 171.54 96 212 C64.32 212 32.64 212 0 212 C0 142.04 0 72.08 0 0 Z M2 2 C2 70.64 2 139.28 2 210 C32.36 210 62.72 210 94 210 C94 170.73 94 131.46 94 91 C125.02 91 156.04 91 188 91 C188 292.3 188 493.6 188 701 C156.98 701 125.96 701 94 701 C94 655.79 94 610.58 94 564 C63.64 564 33.28 564 2 564 C2 641.88 2 719.76 2 800 C88.79 800 175.58 800 265 800 C265 536.66 265 273.32 265 2 C178.21 2 91.42 2 2 2 Z " fill="#989898" transform="translate(587,175)"/>
<path d="M0 0 C1.39698446 -0.00391162 1.39698446 -0.00391162 2.82219082 -0.00790226 C3.8470803 -0.00567154 4.87196979 -0.00344082 5.92791653 -0.0011425 C7.55898213 -0.00348249 7.55898213 -0.00348249 9.22299856 -0.00586975 C12.88502235 -0.00987448 16.54700506 -0.00669212 20.2090292 -0.00355339 C22.82688325 -0.00490766 25.4447371 -0.00668773 28.0625906 -0.00886345 C34.44568917 -0.01331626 40.828776 -0.01234688 47.21187503 -0.00945081 C52.39771469 -0.00719506 57.58355105 -0.006885 62.76939106 -0.00797462 C63.87528432 -0.00820447 63.87528432 -0.00820447 65.00351886 -0.00843897 C66.5011048 -0.00875868 67.99869073 -0.0090829 69.49627667 -0.00941156 C83.54752852 -0.01226487 97.59877386 -0.00898155 111.65002465 -0.00361119 C123.71624557 0.00085764 135.78245688 0.00007997 147.84867764 -0.00452995 C161.85021687 -0.00987674 175.85175039 -0.01199117 189.8532905 -0.00891769 C191.34515027 -0.00859913 192.83701004 -0.00828476 194.32886982 -0.00797462 C195.06295676 -0.00782035 195.79704371 -0.00766607 196.55337571 -0.00750712 C201.73569945 -0.00664235 206.91801957 -0.00810397 212.10034275 -0.01045418 C219.06960307 -0.01354521 226.03884486 -0.01135695 233.00810337 -0.00555992 C235.5728442 -0.00423245 238.13758655 -0.00462623 240.70232677 -0.00682259 C244.18940966 -0.00953453 247.67643318 -0.00615238 251.16351223 -0.0011425 C252.19063243 -0.00337322 253.21775264 -0.00560395 254.2759977 -0.00790226 C255.66907053 -0.00399064 255.66907053 -0.00399064 257.09028625 0 C257.89594546 0.00016235 258.70160466 0.0003247 259.53167778 0.00049198 C261.48222256 0.12584114 261.48222256 0.12584114 263.48222256 1.12584114 C263.48222256 267.10584114 263.48222256 533.08584114 263.48222256 807.12584114 C174.05222256 807.12584114 84.62222256 807.12584114 -7.51777744 807.12584114 C-7.51777744 726.93584114 -7.51777744 646.74584114 -7.51777744 564.12584114 C24.49222256 564.12584114 56.50222256 564.12584114 89.48222256 564.12584114 C90.48222256 565.12584114 90.48222256 565.12584114 90.60527039 567.38846874 C90.60434859 568.39783206 90.6034268 569.40719538 90.60247707 570.44714546 C90.60453907 572.17831612 90.60453907 572.17831612 90.60664272 573.94445992 C90.60124981 575.86064377 90.60124981 575.86064377 90.59574795 577.81553841 C90.59546608 579.16542242 90.59562381 580.51530658 90.59619045 581.86519051 C90.59647843 585.54064722 90.59058172 589.21607157 90.5836165 592.89152074 C90.57738294 596.72857263 90.57677916 600.56562518 90.57559109 604.40268135 C90.57247778 611.67355332 90.56426439 618.94441033 90.5542416 626.2152757 C90.54308046 634.49083466 90.53757001 642.76639432 90.53254616 651.04195893 C90.52208178 668.06992833 90.50448234 685.09788316 90.48222256 702.12584114 C90.15222256 702.12584114 89.82222256 702.12584114 89.48222256 702.12584114 C89.48222256 657.24584114 89.48222256 612.36584114 89.48222256 566.12584114 C58.13222256 566.12584114 26.78222256 566.12584114 -5.51777744 566.12584114 C-5.51777744 644.99584114 -5.51777744 723.86584114 -5.51777744 805.12584114 C82.59222256 805.12584114 170.70222256 805.12584114 261.48222256 805.12584114 C261.48222256 540.46584114 261.48222256 275.80584114 261.48222256 3.12584114 C173.37222256 3.12584114 85.26222256 3.12584114 -5.51777744 3.12584114 C-5.51777744 73.08584114 -5.51777744 143.04584114 -5.51777744 215.12584114 C-6.17777744 215.45584114 -6.83777744 215.78584114 -7.51777744 216.12584114 C-7.51777744 145.17584114 -7.51777744 74.22584114 -7.51777744 1.12584114 C-4.67712459 0.17895686 -2.94246606 0.00059283 0 0 Z " fill="#111111" transform="translate(592.5177774429321,171.87415885925293)"/>
<path d="M0 0 C29.7 0 59.4 0 90 0 C90 199.98 90 399.96 90 606 C60.3 606 30.6 606 0 606 C-0.33 560.79 -0.66 515.58 -1 469 C-32.68 468.67 -64.36 468.34 -97 468 C-97 467.67 -97 467.34 -97 467 C-84.38731588 466.97686795 -71.77463678 466.95908049 -59.16193581 466.94818783 C-53.30586627 466.9429609 -47.44981121 466.93586667 -41.59375 466.92456055 C-35.9463016 466.91372496 -30.29886714 466.90772173 -24.65140915 466.90512276 C-22.49275874 466.90326973 -20.33410913 466.89965143 -18.17546463 466.89426994 C-15.16074195 466.88705064 -12.14607753 466.88600944 -9.13134766 466.88647461 C-8.23151657 466.88287933 -7.33168549 466.87928406 -6.40458679 466.87557983 C-0.22810432 466.88594784 -0.22810432 466.88594784 2 468 C2 512.88 2 557.76 2 604 C30.38 604 58.76 604 88 604 C88 405.34 88 206.68 88 2 C59.62 2 31.24 2 2 2 C2.01160156 10.50652344 2.02320313 19.01304687 2.03515625 27.77734375 C2.04091165 33.83314454 2.04603858 39.88894328 2.05025387 45.94474506 C2.05580565 53.79967665 2.06286527 61.65459767 2.07543945 69.50952148 C2.08644675 76.38889737 2.09227617 83.26826181 2.09487724 90.14764595 C2.09673206 92.77881615 2.10035373 95.40998569 2.10573006 98.04115105 C2.11293635 101.7122625 2.11399112 105.38332603 2.11352539 109.05444336 C2.11712067 110.15423523 2.12071594 111.2540271 2.12442017 112.387146 C2.1230455 113.38139084 2.12167084 114.37563568 2.12025452 115.40000916 C2.12117631 116.26925994 2.1220981 117.13851072 2.12304783 118.03410244 C2 120 2 120 1 121 C-2.07454761 121.09532328 -5.12659158 121.1255138 -8.20141602 121.11352539 C-9.65004028 121.11374443 -9.65004028 121.11374443 -11.12792969 121.1139679 C-14.33661099 121.11326834 -17.54523503 121.10547397 -20.75390625 121.09765625 C-22.97208118 121.09579222 -25.19025652 121.09436825 -27.40843201 121.09336853 C-33.25940071 121.08954216 -39.11034477 121.07971086 -44.96130371 121.06866455 C-50.92667304 121.05845299 -56.89204633 121.05387146 -62.85742188 121.04882812 C-74.57162544 121.03808869 -86.28581067 121.02101085 -98 121 C-97.505 120.01 -97.505 120.01 -97 119 C-64.99 119 -32.98 119 0 119 C0 79.73 0 40.46 0 0 Z " fill="#0E0E0E" transform="translate(683,268)"/>
<path d="M0 0 C31.02 0 62.04 0 94 0 C94 201.3 94 402.6 94 610 C62.98 610 31.96 610 0 610 C0 564.79 0 519.58 0 473 C-30.69 473 -61.38 473 -93 473 C-93 474.98 -93 476.96 -93 479 C-93.33 479 -93.66 479 -94 479 C-94 476.69 -94 474.38 -94 472 C-62.65 472 -31.3 472 1 472 C1 516.88 1 561.76 1 608 C31.03 608 61.06 608 92 608 C92 408.02 92 208.04 92 2 C62.3 2 32.6 2 2 2 C2 41.27 2 80.54 2 121 C-29.68 121 -61.36 121 -94 121 C-90.09587413 118.39724942 -86.83194824 118.73425451 -82.3059082 118.77294922 C-81.4035377 118.77270815 -80.5011672 118.77246708 -79.57145214 118.7722187 C-76.6477952 118.77371259 -73.72439263 118.78894886 -70.80078125 118.8046875 C-68.99686811 118.8076277 -67.19295327 118.80966828 -65.38903809 118.81079102 C-58.69683272 118.82128103 -52.00466387 118.8492034 -45.3125 118.875 C-30.359375 118.91625 -15.40625 118.9575 0 119 C0 79.73 0 40.46 0 0 Z " fill="#818181" transform="translate(681,266)"/>
<path d="M0 0 C0.33 0 0.66 0 1 0 C1 67.32 1 134.64 1 204 C-30.68 204 -62.36 204 -95 204 C-95 164.73 -95 125.46 -95 85 C-124.7 85 -154.4 85 -185 85 C-185 284.98 -185 484.96 -185 691 C-155.63 691 -126.26 691 -96 691 C-95.01 691.66 -94.02 692.32 -93 693 C-124.02 693 -155.04 693 -187 693 C-187 491.7 -187 290.4 -187 83 C-155.98 83 -124.96 83 -93 83 C-93 122.27 -93 161.54 -93 202 C-62.31 202 -31.62 202 0 202 C0 135.34 0 68.68 0 0 Z " fill="#7F7F7F" transform="translate(492,183)"/>
<path d="M0 0 C0.71445282 -0.00807175 1.42890564 -0.01614349 2.16500854 -0.02445984 C3.68322308 -0.0383208 5.20146905 -0.04903392 6.71972656 -0.05688477 C9.0247078 -0.07399619 11.3282162 -0.11784728 13.6328125 -0.16210938 C15.10936447 -0.17224527 16.58592863 -0.18075856 18.0625 -0.1875 C19.086353 -0.21376213 19.086353 -0.21376213 20.13088989 -0.24055481 C25.57176348 -0.2163244 28.53757108 1.26802177 32.9296875 4.23828125 C36.89138074 8.50472012 37.59832352 12.18340985 37.40234375 17.82421875 C36.63904362 21.72272683 34.77178577 23.53828789 31.9296875 26.23828125 C32.8578125 26.75390625 33.7859375 27.26953125 34.7421875 27.80078125 C38.44220367 30.29369995 39.64144111 32.9441266 40.9296875 37.23828125 C41.67284915 42.57459477 40.91760315 46.70489198 37.9296875 51.23828125 C33.41560741 55.75236134 28.52348247 57.06800837 22.22924805 57.48120117 C20.93801025 57.47709229 19.64677246 57.4729834 18.31640625 57.46875 C17.62078079 57.46829178 16.92515533 57.46783356 16.20845032 57.46736145 C14.75214918 57.4643629 13.29585055 57.45654945 11.83959961 57.4440918 C9.60584243 57.42568778 7.37249744 57.42358348 5.13867188 57.42382812 C-5.77470555 57.38608472 -5.77470555 57.38608472 -8.0703125 56.23828125 C-8.1130335 54.5721622 -8.11095082 52.9044524 -8.0703125 51.23828125 C-7.5753125 50.74328125 -7.5753125 50.74328125 -7.0703125 50.23828125 C-4.4303125 50.23828125 -1.7903125 50.23828125 0.9296875 50.23828125 C0.9296875 35.71828125 0.9296875 21.19828125 0.9296875 6.23828125 C-1.7103125 6.23828125 -4.3503125 6.23828125 -7.0703125 6.23828125 C-7.45250017 4.58213468 -7.78426352 2.91371101 -8.0703125 1.23828125 C-6.15020624 -0.68182501 -2.61762699 0.02783337 0 0 Z " fill="#F7F7F7" transform="translate(463.0703125,595.76171875)"/>
<path d="M0 0 C3.8028746 2.13317497 6.36935255 3.99525048 8.625 7.8125 C8.99367188 8.3796875 9.36234375 8.946875 9.7421875 9.53125 C14.15345603 17.44111082 14.12171778 28.10053623 11.859375 36.734375 C10.93632448 38.91746275 9.91484673 40.82812042 8.625 42.8125 C8.08875 43.72 7.5525 44.6275 7 45.5625 C2.15056229 50.15670414 -3.65117963 53.06631118 -10.375 53.4375 C-17.19672307 53.05075664 -23.67813856 50.06449679 -28.3125 45 C-34.3653919 35.6455307 -34.92147534 25.00042756 -32.87109375 14.14453125 C-30.60260068 7.44275459 -26.69862803 3.30109358 -20.6875 -0.0625 C-13.32446283 -3.42222659 -7.34351965 -3.3918016 0 0 Z " fill="#020202" transform="translate(523.375,478.1875)"/>
<path d="M0 0 C29.7 0 59.4 0 90 0 C89.67 0.99 89.34 1.98 89 3 C60.29 2.67 31.58 2.34 2 2 C2 200.66 2 399.32 2 604 C30.71 604 59.42 604 89 604 C88.67 603.34 88.34 602.68 88 602 C87.90261135 600.27321668 87.86930956 598.54266568 87.86628723 596.81314087 C87.85988976 595.16430656 87.85988976 595.16430656 87.85336304 593.48216248 C87.85404282 591.66495445 87.85404282 591.66495445 87.85473633 589.81103516 C87.85137772 588.53945053 87.8480191 587.26786591 87.84455872 585.95774841 C87.83570857 582.46390325 87.83338016 578.97008257 87.83274293 575.47622728 C87.83179442 572.56121129 87.82811673 569.64620102 87.82457083 566.73118722 C87.81642219 559.85399167 87.81398695 552.9768092 87.81469727 546.09960938 C87.81529797 539.0025583 87.80474859 531.90558326 87.7889536 524.80855143 C87.77588204 518.71847412 87.77051322 512.62842167 87.77115268 506.53833044 C87.7714078 502.89967833 87.76854852 499.26109375 87.75797462 495.6224556 C87.74650377 491.56416877 87.75103811 487.50605243 87.75708008 483.44775391 C87.75146057 482.24033035 87.74584106 481.0329068 87.74005127 479.78889465 C87.74424576 478.68403214 87.74844025 477.57916962 87.75276184 476.44082642 C87.75221707 475.48107218 87.75167231 474.52131794 87.75111103 473.53248024 C88 471 88 471 90 467 C122.01 467 154.02 467 187 467 C187.66 468.98 188.32 470.96 189 473 C188.34 473.66 187.68 474.32 187 475 C187 473.02 187 471.04 187 469 C154.99 469 122.98 469 90 469 C90 514.21 90 559.42 90 606 C60.3 606 30.6 606 0 606 C0 406.02 0 206.04 0 0 Z " fill="#0F0F0F" transform="translate(307,268)"/>
<path d="M0 0 C3.79165074 -0.0289337 7.58327327 -0.04677601 11.375 -0.0625 C12.45523437 -0.07087891 13.53546875 -0.07925781 14.6484375 -0.08789062 C16.1953125 -0.09272461 16.1953125 -0.09272461 17.7734375 -0.09765625 C18.72653809 -0.10289307 19.67963867 -0.10812988 20.66162109 -0.11352539 C23 0 23 0 25 1 C26.01856402 3.76296693 26.93860439 6.50387159 27.8125 9.3125 C29.83705199 15.61823876 32.05241338 21.70581251 34.71875 27.7734375 C35.76070873 30.39739454 36.64076398 32.96987361 37.46875 35.6640625 C37.72333984 36.48261719 37.97792969 37.30117188 38.24023438 38.14453125 C38.73797603 39.769549 39.21911921 41.39976536 39.68164062 43.03515625 C40.3296234 45.1415566 40.95205188 47.0605782 42 49 C44.51843524 50.4227913 44.51843524 50.4227913 47 51 C47.875 53.5625 47.875 53.5625 48 56 C46.37799485 57.62200515 44.57976969 57.1299075 42.34375 57.1328125 C40.93416016 57.13474609 40.93416016 57.13474609 39.49609375 57.13671875 C38.50738281 57.13285156 37.51867187 57.12898437 36.5 57.125 C35.51128906 57.12886719 34.52257812 57.13273438 33.50390625 57.13671875 C32.56417969 57.13542969 31.62445313 57.13414062 30.65625 57.1328125 C29.78806641 57.13168457 28.91988281 57.13055664 28.02539062 57.12939453 C26 57 26 57 25 56 C24.95936168 54.33382885 24.957279 52.66611905 25 51 C27.95664519 49.5216774 30.74229737 49.93967217 34 50 C33.7834375 49.37351562 33.566875 48.74703125 33.34375 48.1015625 C33.0653125 47.28429687 32.786875 46.46703125 32.5 45.625 C32.2215625 44.81289063 31.943125 44.00078125 31.65625 43.1640625 C31 41 31 41 31 39 C23.08 39.33 15.16 39.66 7 40 C6.01 42.97 5.02 45.94 4 49 C6.31 49.66 8.62 50.32 11 51 C11.38218767 52.65614657 11.71395102 54.32457024 12 56 C10.41062444 57.58937556 8.76100154 57.12981143 6.5625 57.1328125 C5.22058594 57.13474609 5.22058594 57.13474609 3.8515625 57.13671875 C2.91054688 57.13285156 1.96953125 57.12898437 1 57.125 C-0.41152344 57.13080078 -0.41152344 57.13080078 -1.8515625 57.13671875 C-2.74617188 57.13542969 -3.64078125 57.13414062 -4.5625 57.1328125 C-5.38878906 57.13168457 -6.21507812 57.13055664 -7.06640625 57.12939453 C-9 57 -9 57 -10 56 C-10.04063832 54.33382885 -10.042721 52.66611905 -10 51 C-7.03 50.505 -7.03 50.505 -4 50 C-3.87238281 49.46632813 -3.74476563 48.93265625 -3.61328125 48.3828125 C-1.63751324 40.70626162 0.81275099 33.21589562 3.8515625 25.8984375 C6.44738095 19.34708617 8.68409534 12.65436605 11 6 C7.37 6 3.74 6 0 6 C0 4.02 0 2.04 0 0 Z " fill="#F5F5F5" transform="translate(403,596)"/>
<path d="M0 0 C3.79165074 -0.0289337 7.58327327 -0.04677601 11.375 -0.0625 C12.45523438 -0.07087891 13.53546875 -0.07925781 14.6484375 -0.08789062 C16.1953125 -0.09272461 16.1953125 -0.09272461 17.7734375 -0.09765625 C18.72653809 -0.10289307 19.67963867 -0.10812988 20.66162109 -0.11352539 C23 0 23 0 25 1 C25.94213867 2.98339844 25.94213867 2.98339844 26.91796875 5.609375 C27.46420898 7.06875488 27.46420898 7.06875488 28.02148438 8.55761719 C28.40626953 9.61110352 28.79105469 10.66458984 29.1875 11.75 C29.58388672 12.8215332 29.98027344 13.89306641 30.38867188 14.99707031 C39.66486599 40.27209361 39.66486599 40.27209361 42 50 C44.97 50.495 44.97 50.495 48 51 C48.042721 52.66611905 48.04063832 54.33382885 48 56 C46.41586641 57.58413359 44.79022215 57.12979629 42.59765625 57.1328125 C41.70755859 57.13410156 40.81746094 57.13539063 39.90039062 57.13671875 C38.96388672 57.13285156 38.02738281 57.12898437 37.0625 57.125 C36.12986328 57.12886719 35.19722656 57.13273438 34.23632812 57.13671875 C33.34494141 57.13542969 32.45355469 57.13414062 31.53515625 57.1328125 C30.714104 57.13168457 29.89305176 57.13055664 29.04711914 57.12939453 C27 57 27 57 25 56 C25 54.35 25 52.7 25 51 C27.95664519 49.5216774 30.74229737 49.93967217 34 50 C33.01 46.37 32.02 42.74 31 39 C23.08 39 15.16 39 7 39 C6.01 42.63 5.02 46.26 4 50 C5.423125 49.9690625 5.423125 49.9690625 6.875 49.9375 C10 50 10 50 12 51 C12.042721 52.66611905 12.04063832 54.33382885 12 56 C11 57 11 57 9.05053711 57.11352539 C7.8015564 57.10567017 7.8015564 57.10567017 6.52734375 57.09765625 C5.62822266 57.09443359 4.72910156 57.09121094 3.80273438 57.08789062 C2.38444336 57.07532227 2.38444336 57.07532227 0.9375 57.0625 C-0.01189453 57.05798828 -0.96128906 57.05347656 -1.93945312 57.04882812 C-4.29303065 57.0370011 -6.64648477 57.02052025 -9 57 C-9.625 54.625 -9.625 54.625 -10 52 C-9.34 51.34 -8.68 50.68 -8 50 C-6.68 50 -5.36 50 -4 50 C-3.76216797 49.01773438 -3.76216797 49.01773438 -3.51953125 48.015625 C-2.24857946 43.04416717 -0.80449429 38.33067338 1.25 33.625 C5.13979355 24.65587358 7.98188811 15.28917436 11 6 C7.37 6 3.74 6 0 6 C0 4.02 0 2.04 0 0 Z " fill="#F5F5F5" transform="translate(521,596)"/>
<path d="M0 0 C0.9583374 0.00523682 1.9166748 0.01047363 2.90405273 0.01586914 C4.45576172 0.02070312 4.45576172 0.02070312 6.03881836 0.02563477 C7.12743164 0.03401367 8.21604492 0.04239258 9.33764648 0.05102539 C10.97636719 0.05779297 10.97636719 0.05779297 12.64819336 0.06469727 C15.35723144 0.07652713 18.06616248 0.09300996 20.77514648 0.11352539 C24.04942852 6.28372799 26.43102963 12.49808657 28.65014648 19.11352539 C31.30533265 26.91157216 34.03214657 34.66179976 37.0480957 42.32836914 C38.11984673 45.102136 38.77514648 47.10569059 38.77514648 50.11352539 C39.57952148 50.09290039 40.38389648 50.07227539 41.21264648 50.05102539 C43.77514648 50.11352539 43.77514648 50.11352539 44.77514648 51.11352539 C44.90014648 53.61352539 44.90014648 53.61352539 44.77514648 56.11352539 C42.47504876 58.41362312 36.92723982 57.29889904 33.83764648 57.30102539 C32.90500977 57.31327148 31.97237305 57.32551758 31.01147461 57.33813477 C30.12008789 57.34006836 29.22870117 57.34200195 28.31030273 57.34399414 C27.48925049 57.34810303 26.66819824 57.35221191 25.82226562 57.35644531 C23.77514648 57.11352539 23.77514648 57.11352539 21.77514648 55.11352539 C22.31086077 51.5778111 22.31086077 51.5778111 23.77514648 50.11352539 C26.10332612 49.74591808 28.43698498 49.41110958 30.77514648 49.11352539 C29.78514648 46.14352539 28.79514648 43.17352539 27.77514648 40.11352539 C19.85514648 39.78352539 11.93514648 39.45352539 3.77514648 39.11352539 C3.11514648 41.75352539 2.45514648 44.39352539 1.77514648 47.11352539 C1.44514648 48.10352539 1.11514648 49.09352539 0.77514648 50.11352539 C2.47670898 50.08258789 2.47670898 50.08258789 4.21264648 50.05102539 C7.77514648 50.11352539 7.77514648 50.11352539 8.77514648 51.11352539 C8.90014648 53.61352539 8.90014648 53.61352539 8.77514648 56.11352539 C7.21907898 57.6695929 5.71557277 57.24323308 3.55639648 57.24633789 C2.2821582 57.24827148 2.2821582 57.24827148 0.98217773 57.25024414 C-0.35780273 57.24444336 -0.35780273 57.24444336 -1.72485352 57.23852539 C-2.61817383 57.24239258 -3.51149414 57.24625977 -4.43188477 57.25024414 C-5.28137695 57.24895508 -6.13086914 57.24766602 -7.00610352 57.24633789 C-7.79049805 57.24520996 -8.57489258 57.24408203 -9.38305664 57.24291992 C-11.22485352 57.11352539 -11.22485352 57.11352539 -12.22485352 56.11352539 C-12.26549184 54.44735424 -12.26757452 52.77964444 -12.22485352 51.11352539 C-11.46817383 50.95239258 -10.71149414 50.79125977 -9.93188477 50.62524414 C-5.94792 48.40043265 -5.25745369 45.05202551 -3.91235352 40.92602539 C-3.62674561 40.10191162 -3.3411377 39.27779785 -3.046875 38.42871094 C-2.42663194 36.63369184 -1.81477461 34.83575888 -1.21020508 33.03540039 C-0.16233964 29.92815223 0.91626478 26.83283743 2.00170898 23.73852539 C3.9427424 18.20248237 5.8635003 12.65978199 7.77514648 7.11352539 C4.47514648 6.78352539 1.17514648 6.45352539 -2.22485352 6.11352539 C-2.60704119 4.45737882 -2.93880453 2.78895515 -3.22485352 1.11352539 C-2.22485352 0.11352539 -2.22485352 0.11352539 0 0 Z " fill="#F6F6F6" transform="translate(642.224853515625,595.886474609375)"/>
<path d="M0 0 C1.89588867 -0.01836914 1.89588867 -0.01836914 3.83007812 -0.03710938 C19.82584196 -0.06219421 19.82584196 -0.06219421 25.8125 4.5 C29.72764252 8.5083602 30.73391127 12.0844942 30.8125 17.625 C30.69840529 22.61832147 29.97967056 25.46367967 26.4375 29.1875 C20.80106195 33.1344445 16.78784181 33.72192206 10 33.4375 C8.75959961 33.41042969 8.75959961 33.41042969 7.49414062 33.3828125 C5.47475067 33.3361214 3.45596555 33.26439393 1.4375 33.1875 C1.4375 37.8075 1.4375 42.4275 1.4375 47.1875 C5.7275 47.1875 10.0175 47.1875 14.4375 47.1875 C14.4375 48.8375 14.4375 50.4875 14.4375 52.1875 C12.63470809 53.99029191 9.89702299 53.31786605 7.46875 53.3203125 C6.25832031 53.32160156 5.04789063 53.32289063 3.80078125 53.32421875 C2.52589844 53.32035156 1.25101563 53.31648437 -0.0625 53.3125 C-1.33738281 53.31636719 -2.61226562 53.32023438 -3.92578125 53.32421875 C-5.74142578 53.32228516 -5.74142578 53.32228516 -7.59375 53.3203125 C-8.71330078 53.31918457 -9.83285156 53.31805664 -10.98632812 53.31689453 C-13.5625 53.1875 -13.5625 53.1875 -14.5625 52.1875 C-14.5625 50.5375 -14.5625 48.8875 -14.5625 47.1875 C-11.2625 47.1875 -7.9625 47.1875 -4.5625 47.1875 C-4.5625 33.6575 -4.5625 20.1275 -4.5625 6.1875 C-7.8625 6.1875 -11.1625 6.1875 -14.5625 6.1875 C-14.5625 -3.00540963 -7.67321002 0.00383086 0 0 Z " fill="#F9F9F9" transform="translate(558.5625,476.8125)"/>
<path d="M0 0 C1.18613892 0.00785522 1.18613892 0.00785522 2.39624023 0.01586914 C3.67724609 0.02070312 3.67724609 0.02070312 4.98413086 0.02563477 C5.88196289 0.03401367 6.77979492 0.04239258 7.70483398 0.05102539 C8.6065332 0.05553711 9.50823242 0.06004883 10.43725586 0.06469727 C12.67234712 0.07652315 14.90730835 0.09300319 17.14233398 0.11352539 C17.52452166 1.76967196 17.856285 3.43809563 18.14233398 5.11352539 C17.81233398 5.44352539 17.48233398 5.77352539 17.14233398 6.11352539 C14.83233398 6.11352539 12.52233398 6.11352539 10.14233398 6.11352539 C10.14233398 12.05352539 10.14233398 17.99352539 10.14233398 24.11352539 C18.06233398 24.11352539 25.98233398 24.11352539 34.14233398 24.11352539 C34.14233398 18.17352539 34.14233398 12.23352539 34.14233398 6.11352539 C32.16233398 6.11352539 30.18233398 6.11352539 28.14233398 6.11352539 C27.76014631 4.45737882 27.42838297 2.78895515 27.14233398 1.11352539 C28.14233398 0.11352539 28.14233398 0.11352539 30.09179688 0 C30.92445068 0.00523682 31.75710449 0.01047363 32.61499023 0.01586914 C33.51411133 0.0190918 34.41323242 0.02231445 35.33959961 0.02563477 C36.75789062 0.03820312 36.75789062 0.03820312 38.20483398 0.05102539 C39.15422852 0.05553711 40.10362305 0.06004883 41.08178711 0.06469727 C43.43536464 0.07652429 45.78881876 0.09300514 48.14233398 0.11352539 C48.14233398 2.09352539 48.14233398 4.07352539 48.14233398 6.11352539 C46.16233398 6.11352539 44.18233398 6.11352539 42.14233398 6.11352539 C42.14233398 20.63352539 42.14233398 35.15352539 42.14233398 50.11352539 C45.11233398 50.60852539 45.11233398 50.60852539 48.14233398 51.11352539 C48.18505499 52.77964444 48.18297231 54.44735424 48.14233398 56.11352539 C46.58626648 57.6695929 45.08276027 57.24323308 42.92358398 57.24633789 C41.6493457 57.24827148 41.6493457 57.24827148 40.34936523 57.25024414 C39.00938477 57.24444336 39.00938477 57.24444336 37.64233398 57.23852539 C36.74901367 57.24239258 35.85569336 57.24625977 34.93530273 57.25024414 C34.08581055 57.24895508 33.23631836 57.24766602 32.36108398 57.24633789 C31.57668945 57.24520996 30.79229492 57.24408203 29.98413086 57.24291992 C28.14233398 57.11352539 28.14233398 57.11352539 27.14233398 56.11352539 C27.10169566 54.44735424 27.09961298 52.77964444 27.14233398 51.11352539 C29.45233398 50.78352539 31.76233398 50.45352539 34.14233398 50.11352539 C34.14233398 43.84352539 34.14233398 37.57352539 34.14233398 31.11352539 C26.22233398 31.11352539 18.30233398 31.11352539 10.14233398 31.11352539 C10.14233398 37.38352539 10.14233398 43.65352539 10.14233398 50.11352539 C12.12233398 50.11352539 14.10233398 50.11352539 16.14233398 50.11352539 C16.80233398 50.44352539 17.46233398 50.77352539 18.14233398 51.11352539 C18.18505499 52.77964444 18.18297231 54.44735424 18.14233398 56.11352539 C16.58626648 57.6695929 15.08276027 57.24323308 12.92358398 57.24633789 C11.6493457 57.24827148 11.6493457 57.24827148 10.34936523 57.25024414 C9.00938477 57.24444336 9.00938477 57.24444336 7.64233398 57.23852539 C6.74901367 57.24239258 5.85569336 57.24625977 4.93530273 57.25024414 C4.08581055 57.24895508 3.23631836 57.24766602 2.36108398 57.24633789 C1.57668945 57.24520996 0.79229492 57.24408203 -0.01586914 57.24291992 C-1.85766602 57.11352539 -1.85766602 57.11352539 -2.85766602 56.11352539 C-2.98266602 53.61352539 -2.98266602 53.61352539 -2.85766602 51.11352539 C-2.36266602 50.61852539 -2.36266602 50.61852539 -1.85766602 50.11352539 C-0.20766602 50.11352539 1.44233398 50.11352539 3.14233398 50.11352539 C3.14233398 35.59352539 3.14233398 21.07352539 3.14233398 6.11352539 C1.49233398 6.11352539 -0.15766602 6.11352539 -1.85766602 6.11352539 C-2.23985369 4.45737882 -2.57161703 2.78895515 -2.85766602 1.11352539 C-1.85766602 0.11352539 -1.85766602 0.11352539 0 0 Z " fill="#F6F6F6" transform="translate(694.857666015625,595.886474609375)"/>
<path d="M0 0 C1.00353516 -0.0937793 1.00353516 -0.0937793 2.02734375 -0.18945312 C4.015625 -0.25390625 4.015625 -0.25390625 7.75 0.5625 C10.04061577 2.87075527 11.29586478 5.67927301 12.75 8.5625 C13.96640591 10.72414613 15.18820309 12.88276335 16.4140625 15.0390625 C17.40346445 16.81469117 18.3876253 18.59314944 19.37109375 20.37207031 C20.37760544 22.19221159 21.38776805 24.01028973 22.3984375 25.828125 C25.28372324 31.03093212 28.08798249 36.23846497 30.75 41.5625 C31.08 30.0125 31.41 18.4625 31.75 6.5625 C28.78 6.5625 25.81 6.5625 22.75 6.5625 C22.75 4.5825 22.75 2.6025 22.75 0.5625 C29.68 0.5625 36.61 0.5625 43.75 0.5625 C43.75 2.5425 43.75 4.5225 43.75 6.5625 C41.77 6.5625 39.79 6.5625 37.75 6.5625 C37.75 23.7225 37.75 40.8825 37.75 58.5625 C32.75 58.5625 32.75 58.5625 31.1953125 57.015625 C30.75960937 56.28859375 30.32390625 55.5615625 29.875 54.8125 C29.37226562 53.98878906 28.86953125 53.16507813 28.3515625 52.31640625 C27.82304688 51.40761719 27.29453125 50.49882813 26.75 49.5625 C26.18023438 48.62277344 25.61046875 47.68304687 25.0234375 46.71484375 C21.46343327 40.76320672 18.28208563 34.69525558 15.234375 28.46875 C13.31351506 24.70790843 11.16450289 21.11673303 8.94921875 17.5234375 C7.75 15.5625 7.75 15.5625 6.75 13.5625 C6.42 25.7725 6.09 37.9825 5.75 50.5625 C8.39 50.5625 11.03 50.5625 13.75 50.5625 C14.41 51.2225 15.07 51.8825 15.75 52.5625 C15.21428571 56.09821429 15.21428571 56.09821429 13.75 57.5625 C10.44483066 57.81285974 7.12603959 57.74771952 3.8125 57.75 C2.87986328 57.76224609 1.94722656 57.77449219 0.98632812 57.78710938 C0.09494141 57.78904297 -0.79644531 57.79097656 -1.71484375 57.79296875 C-2.535896 57.79707764 -3.35694824 57.80118652 -4.20288086 57.80541992 C-6.25 57.5625 -6.25 57.5625 -8.25 55.5625 C-7.71428571 52.02678571 -7.71428571 52.02678571 -6.25 50.5625 C-4.6 50.5625 -2.95 50.5625 -1.25 50.5625 C-1.25 36.0425 -1.25 21.5225 -1.25 6.5625 C-3.23 6.5625 -5.21 6.5625 -7.25 6.5625 C-7.63218767 4.90635343 -7.96395102 3.23792976 -8.25 1.5625 C-6.25330689 -0.43419311 -2.70954119 0.10970835 0 0 Z " fill="#F8F8F8" transform="translate(581.25,595.4375)"/>
<path d="M0 0 C0.86818359 -0.020625 1.73636719 -0.04125 2.63085938 -0.0625 C3.47068359 -0.06765625 4.31050781 -0.0728125 5.17578125 -0.078125 C5.94446533 -0.0874707 6.71314941 -0.09681641 7.50512695 -0.10644531 C10.33948866 0.35648881 11.62616257 1.26265368 13.6875 3.25 C14.76489258 5.40039062 14.76489258 5.40039062 15.58203125 7.90625 C16.05092773 9.30387573 16.05092773 9.30387573 16.52929688 10.72973633 C16.84962891 11.72642334 17.16996094 12.72311035 17.5 13.75 C18.19230032 15.82739359 18.88634108 17.90420791 19.58203125 19.98046875 C20.10337646 21.54933838 20.10337646 21.54933838 20.63525391 23.14990234 C22.49911433 28.64115518 24.55105864 34.06183503 26.60473633 39.484375 C28.6875 45.04329627 28.6875 45.04329627 28.6875 47.25 C30.3375 47.25 31.9875 47.25 33.6875 47.25 C33.730221 48.91611905 33.72813832 50.58382885 33.6875 52.25 C31.53017167 54.40732833 26.73951247 53.43520919 23.75 53.4375 C22.91275391 53.44974609 22.07550781 53.46199219 21.21289062 53.47460938 C20.41173828 53.47654297 19.61058594 53.47847656 18.78515625 53.48046875 C18.04789307 53.48457764 17.31062988 53.48868652 16.55102539 53.49291992 C14.6875 53.25 14.6875 53.25 12.6875 51.25 C13.0625 49.125 13.0625 49.125 13.6875 47.25 C16.3275 47.25 18.9675 47.25 21.6875 47.25 C21.1925 46.1775 20.6975 45.105 20.1875 44 C18.80096089 40.99583192 18.6875 39.79065105 18.6875 36.25 C11.4275 36.25 4.1675 36.25 -3.3125 36.25 C-4.3025 39.22 -5.2925 42.19 -6.3125 45.25 C-6.6425 45.91 -6.9725 46.57 -7.3125 47.25 C-4.6725 47.25 -2.0325 47.25 0.6875 47.25 C0.730221 48.91611905 0.72813832 50.58382885 0.6875 52.25 C-0.3125 53.25 -0.3125 53.25 -2.07836914 53.36352539 C-2.82723389 53.35828857 -3.57609863 53.35305176 -4.34765625 53.34765625 C-5.15654297 53.34443359 -5.96542969 53.34121094 -6.79882812 53.33789062 C-7.64896484 53.32951172 -8.49910156 53.32113281 -9.375 53.3125 C-10.22900391 53.30798828 -11.08300781 53.30347656 -11.96289062 53.29882812 C-14.07945663 53.28700373 -16.19598685 53.26906769 -18.3125 53.25 C-18.69468767 51.59385343 -19.02645102 49.92542976 -19.3125 48.25 C-18.3125 47.25 -18.3125 47.25 -15.75 47.1875 C-14.945625 47.208125 -14.14125 47.22875 -13.3125 47.25 C-13.22613281 46.30640625 -13.13976562 45.3628125 -13.05078125 44.390625 C-12.32306528 39.31827903 -10.38271495 34.73842786 -8.5 30 C-7.77282394 28.13435361 -7.04625551 26.26847027 -6.3203125 24.40234375 C-5.97258789 23.51401855 -5.62486328 22.62569336 -5.26660156 21.71044922 C-3.7770302 17.86912369 -2.3844183 13.99481066 -1.00390625 10.11328125 C-0.3125 8.25 -0.3125 8.25 0.6875 6.25 C-2.9425 6.25 -6.5725 6.25 -10.3125 6.25 C-10.3125 -1.86414424 -6.9225576 0.04057177 0 0 Z " fill="#F5F5F5" transform="translate(614.3125,476.75)"/>
<path d="M0 0 C31.35 0 62.7 0 95 0 C95 78.87 95 157.74 95 239 C-36.175 238.505 -36.175 238.505 -170 238 C-170 237.67 -170 237.34 -170 237 C-83.21 237 3.58 237 93 237 C93 159.45 93 81.9 93 2 C62.97 2 32.94 2 2 2 C2 46.88 2 91.76 2 138 C0.68 137.34 -0.64 136.68 -2 136 C-1.34 136 -0.68 136 0 136 C0 91.12 0 46.24 0 0 Z " fill="#A5A5A5" transform="translate(398,738)"/>
<path d="M0 0 C32.01 0 64.02 0 97 0 C98 1 98 1 98.12304783 3.2626276 C98.12212604 4.27199092 98.12120424 5.28135424 98.12025452 6.32130432 C98.12231651 8.05247498 98.12231651 8.05247498 98.12442017 9.81861877 C98.11902725 11.73480263 98.11902725 11.73480263 98.11352539 13.68969727 C98.11324352 15.03958128 98.11340125 16.38946544 98.1139679 17.73934937 C98.11425587 21.41480608 98.10835916 25.09023043 98.10139394 28.7656796 C98.09516038 32.60273149 98.0945566 36.43978404 98.09336853 40.27684021 C98.09025522 47.54771218 98.08204183 54.81856919 98.07201904 62.08943456 C98.0608579 70.36499352 98.05534745 78.64055318 98.05032361 86.91611779 C98.03985922 103.94408719 98.02225978 120.97204202 98 138 C97.67 138 97.34 138 97 138 C97 93.12 97 48.24 97 2 C65.65 2 34.3 2 2 2 C2 80.87 2 159.74 2 241 C88.13 241 174.26 241 263 241 C263 241.33 263 241.66 263 242 C176.21 242.33 89.42 242.66 0 243 C0 162.81 0 82.62 0 0 Z " fill="#282828" transform="translate(585,736)"/>
<path d="M0 0 C88.11 0 176.22 0 267 0 C266.67 69.3 266.34 138.6 266 210 C235.31 210 204.62 210 173 210 C173 170.73 173 131.46 173 91 C173.33 91 173.66 91 174 91 C174 129.94 174 168.88 174 209 C204.03 209 234.06 209 265 209 C265 140.69 265 72.38 265 2 C178.21 2 91.42 2 2 2 C1.67 25.43 1.34 48.86 1 73 C0.67 73 0.34 73 0 73 C0 48.91 0 24.82 0 0 Z " fill="#A9A9A9" transform="translate(226,175)"/>
<path d="M0 0 C0.66 -1.32 1.32 -2.64 2 -4 C3.66611905 -4.042721 5.33382885 -4.04063832 7 -4 C8 -3 8 -3 8.11352539 -1.05053711 C8.10828857 -0.2178833 8.10305176 0.61477051 8.09765625 1.47265625 C8.09443359 2.37177734 8.09121094 3.27089844 8.08789062 4.19726562 C8.07532227 5.61555664 8.07532227 5.61555664 8.0625 7.0625 C8.05798828 8.01189453 8.05347656 8.96128906 8.04882812 9.93945312 C8.0370011 12.29303065 8.02052025 14.64648477 8 17 C3.25 18.125 3.25 18.125 1 17 C0.22533078 14.21029524 -0.34526155 11.40244837 -0.92578125 8.56640625 C-1.76932268 5.82420057 -1.76932268 5.82420057 -4.296875 4.671875 C-9.81633859 3.29998521 -14.99849138 3.29576549 -20.375 5.1875 C-25.34262786 8.61752876 -27.41354627 12.26016954 -29 18 C-29.76974832 27.17699947 -30.04441991 35.87706811 -24.125 43.375 C-19.77616743 46.70057785 -15.84992786 47.43077914 -10.47265625 47.33203125 C-6.81862944 46.84136414 -3.69751758 45.49445655 -0.359375 43.97265625 C2.12898794 42.94682451 4.32101557 42.28318124 7 42 C7.66 42.66 8.32 43.32 9 44 C8.80652691 46.62495916 8.36650005 47.68335796 6.36328125 49.4140625 C5.68652344 49.81367187 5.00976562 50.21328125 4.3125 50.625 C3.64863281 51.02976562 2.98476563 51.43453125 2.30078125 51.8515625 C-5.2945715 55.64279121 -13.71416908 56.66432244 -21.890625 54.08984375 C-29.68431008 50.46134665 -34.29017758 45.14364335 -37.26953125 37.10546875 C-39.59717466 27.20987241 -39.38506894 15.83151306 -34 7 C-25.6476831 -5.0136065 -12.52455353 -7.56199459 0 0 Z " fill="#F6F6F6" transform="translate(377,599)"/>
<path d="M0 0 C32.01 0 64.02 0 97 0 C98.125 6.75 98.125 6.75 98.12304783 10.42398643 C98.1250387 11.25827297 98.12702957 12.09255951 98.12908077 12.95212746 C98.12616811 13.85265532 98.12325544 14.75318317 98.12025452 15.68099976 C98.12111053 16.64751465 98.12196655 17.61402954 98.12284851 18.60983276 C98.1245022 21.85497894 98.11898246 25.10007339 98.11352539 28.34521484 C98.11321904 30.70885021 98.11335258 33.07248566 98.11389065 35.43612099 C98.11411646 41.76740407 98.10831938 48.09866827 98.10128021 54.4299469 C98.0955865 60.37037211 98.09531716 66.31079272 98.09460449 72.2512207 C98.08935657 89.62581631 98.07539543 107.00040839 98.0625 124.375 C98.041875 163.19125 98.02125 202.0075 98 242 C11.54 242 -74.92 242 -164 242 C-164 241.67 -164 241.34 -164 241 C-78.2 240.67 7.6 240.34 96 240 C96 161.13 96 82.26 96 1 C64.65 1 33.3 1 1 1 C1 45.88 1 90.76 1 137 C0.67 137 0.34 137 0 137 C0 91.79 0 46.58 0 0 Z " fill="#282828" transform="translate(397,737)"/>
<path d="M0 0 C3.8028746 2.13317497 6.36935255 3.99525048 8.625 7.8125 C8.99367188 8.3796875 9.36234375 8.946875 9.7421875 9.53125 C14.15345603 17.44111082 14.12171778 28.10053623 11.859375 36.734375 C10.93632448 38.91746275 9.91484673 40.82812042 8.625 42.8125 C8.08875 43.72 7.5525 44.6275 7 45.5625 C2.15056229 50.15670414 -3.65117963 53.06631118 -10.375 53.4375 C-17.19672307 53.05075664 -23.67813856 50.06449679 -28.3125 45 C-34.3653919 35.6455307 -34.92147534 25.00042756 -32.87109375 14.14453125 C-30.60260068 7.44275459 -26.69862803 3.30109358 -20.6875 -0.0625 C-13.32446283 -3.42222659 -7.34351965 -3.3918016 0 0 Z M-23.6875 11.3125 C-27.86543139 17.50202799 -26.91818458 25.63793696 -26.375 32.8125 C-24.87390174 38.28661377 -22.13961711 41.67788348 -17.375 44.8125 C-13.66518719 46.66740641 -9.42376607 46.2665091 -5.375 45.8125 C0.54451714 42.79892764 3.54788373 39.02668257 5.625 32.8125 C6.39615141 24.80507896 6.90589757 16.40088667 1.625 9.8125 C-3.22340674 5.31040803 -6.36662708 4.45667582 -12.8359375 4.53125 C-17.76385369 5.07711149 -20.44513057 7.80723575 -23.6875 11.3125 Z " fill="#F4F4F4" transform="translate(523.375,478.1875)"/>
<path d="M0 0 C0.92435618 0.00025895 1.84871236 0.0005179 2.80107933 0.0007847 C3.81818692 0.00622425 4.83529451 0.0116638 5.88322353 0.01726818 C6.9624335 0.01908618 8.04164347 0.02090417 9.15355676 0.02277726 C12.78795733 0.03018736 16.42229219 0.04488013 20.05667019 0.05955029 C22.65481876 0.06641689 25.25296847 0.0728666 27.85111904 0.07892895 C34.18610545 0.09463544 40.52106095 0.1159699 46.85602266 0.13950697 C52.00276491 0.15860478 57.14951009 0.17609551 62.29626179 0.1924448 C76.87753263 0.23894402 91.45877999 0.2896516 106.04001696 0.34578786 C106.82636213 0.34881481 107.61270731 0.35184176 108.42288113 0.35496044 C109.2101823 0.35799194 109.99748348 0.36102343 110.80864226 0.36414679 C123.57847181 0.41306083 136.34830979 0.45198448 149.11818594 0.48638139 C162.21968496 0.5217841 175.32114164 0.56457359 188.42259115 0.6151368 C195.78237857 0.64338906 203.14214713 0.66855268 210.50196934 0.68579578 C217.41874898 0.70206661 224.33542381 0.72856347 231.252141 0.7621069 C233.79751915 0.77281991 236.3429143 0.78009601 238.88831234 0.78377247 C242.34921254 0.78929592 245.80983816 0.80694705 249.27067471 0.82781506 C250.29001301 0.82656244 251.30935132 0.82530983 252.35957867 0.82401925 C253.2813271 0.83210144 254.20307553 0.84018364 255.15275574 0.84851074 C256.35213126 0.85274133 256.35213126 0.85274133 257.57573658 0.85705739 C259.5134573 1.11301708 259.5134573 1.11301708 261.5134573 3.11301708 C173.4034573 3.11301708 85.2934573 3.11301708 -5.4865427 3.11301708 C-5.4865427 73.07301708 -5.4865427 143.03301708 -5.4865427 215.11301708 C-6.1465427 215.44301708 -6.8065427 215.77301708 -7.4865427 216.11301708 C-7.4865427 145.16301708 -7.4865427 74.21301708 -7.4865427 1.11301708 C-4.6483873 0.16696528 -2.93758654 -0.0085707 0 0 Z " fill="#191919" transform="translate(592.4865427017212,171.88698291778564)"/>
<path d="M0 0 C65.33678549 -0.0806627 65.33678549 -0.0806627 92.58203125 -0.09765625 C98.81852224 -0.10157213 105.05501313 -0.10561313 111.29150391 -0.10986328 C112.07317094 -0.11039078 112.85483798 -0.11091828 113.66019189 -0.11146176 C126.28767102 -0.12016575 138.91513197 -0.13593635 151.5426003 -0.15430559 C164.49708064 -0.17299368 177.45155145 -0.18411441 190.40604472 -0.18817699 C198.40280026 -0.19092432 206.39950446 -0.1996086 214.3962442 -0.21583293 C220.52310348 -0.22763202 226.64992343 -0.2289141 232.77679253 -0.22621536 C235.2939301 -0.22676728 237.81106954 -0.23076785 240.32819557 -0.23841095 C243.75567383 -0.24831104 247.18292956 -0.24598688 250.6104126 -0.24050903 C251.61429874 -0.24633472 252.61818488 -0.2521604 253.65249181 -0.25816262 C254.56962225 -0.25418052 255.48675269 -0.25019842 256.43167496 -0.24609566 C257.61868071 -0.24723482 257.61868071 -0.24723482 258.82966638 -0.24839699 C261 0 261 0 265 2 C178.21 2 91.42 2 2 2 C2.33 70.97 2.66 139.94 3 211 C2.01 211 1.02 211 0 211 C0 141.37 0 71.74 0 0 Z " fill="#9C9C9C" transform="translate(587,175)"/>
<path d="M0 0 C0.495 0.495 0.495 0.495 1 1 C1.66 -0.32 2.32 -1.64 3 -3 C4.66611905 -3.042721 6.33382885 -3.04063832 8 -3 C9.5220959 -1.4779041 9.12959521 -0.11789918 9.1328125 2 C9.13474609 3.2065625 9.13474609 3.2065625 9.13671875 4.4375 C9.13285156 5.283125 9.12898438 6.12875 9.125 7 C9.13080078 8.2684375 9.13080078 8.2684375 9.13671875 9.5625 C9.13542969 10.366875 9.13414062 11.17125 9.1328125 12 C9.13168457 12.7425 9.13055664 13.485 9.12939453 14.25 C9 16 9 16 8 17 C6.00041636 17.04080783 3.99954746 17.04254356 2 17 C1.91363281 16.38511719 1.82726562 15.77023437 1.73828125 15.13671875 C0.89635375 10.04952758 0.89635375 10.04952758 -2 5.9375 C-7.81219999 4.1211875 -12.96491951 3.96395902 -18.4375 6.75 C-22.04220965 9.91511091 -24.10571698 12.27533661 -25 17 C-25.57509466 26.69919259 -25.98791549 34.19405057 -19.5625 41.9375 C-15.73170134 44.82254039 -11.60664708 44.61941581 -6.97265625 44.44140625 C-3.36884046 43.90627986 -0.79736172 42.73215183 2.30859375 40.890625 C4.58454128 39.69220459 6.4783628 39.68479535 9 40 C9 41.98 9 43.96 9 46 C1.30242686 50.71279988 -5.89177578 53.10022892 -15 52 C-21.72739309 50.19377067 -26.2312522 46.82223218 -30 41 C-34.50617972 32.8888765 -34.06753549 22.39559548 -32.56640625 13.40234375 C-30.69328558 7.55029595 -26.32639888 2.0256482 -21.08203125 -1.16796875 C-13.87161509 -4.23347502 -6.70102851 -4.18814282 0 0 Z " fill="#F3F3F3" transform="translate(470,479)"/>
<path d="M0 0 C30.36 0 60.72 0 92 0 C92 0.33 92 0.66 92 1 C62.3 1 32.6 1 2 1 C2 40.27 2 79.54 2 120 C-29.68 120 -61.36 120 -94 120 C-90.09587413 117.39724942 -86.83194824 117.73425451 -82.3059082 117.77294922 C-81.4035377 117.77270815 -80.5011672 117.77246708 -79.57145214 117.7722187 C-76.6477952 117.77371259 -73.72439263 117.78894886 -70.80078125 117.8046875 C-68.99686811 117.8076277 -67.19295327 117.80966828 -65.38903809 117.81079102 C-58.69683272 117.82128103 -52.00466387 117.8492034 -45.3125 117.875 C-30.359375 117.91625 -15.40625 117.9575 0 118 C0 79.06 0 40.12 0 0 Z " fill="#818181" transform="translate(681,267)"/>
<path d="M0 0 C4.021875 -0.0928125 4.021875 -0.0928125 8.125 -0.1875 C8.95789551 -0.21481201 9.79079102 -0.24212402 10.64892578 -0.27026367 C15.50273718 -0.3241177 18.81697656 0.27277043 23 3 C25.67089167 7.00633751 25.70693873 10.28991428 25 15 C22.80168636 18.03215675 21.55036806 18.81654398 18 20 C16.59175107 20.08021999 15.18002769 20.10765977 13.76953125 20.09765625 C13.04612549 20.09515869 12.32271973 20.09266113 11.57739258 20.09008789 C10.66497803 20.08098389 9.75256348 20.07187988 8.8125 20.0625 C5.904375 20.041875 2.99625 20.02125 0 20 C0 13.4 0 6.8 0 0 Z " fill="#080808" transform="translate(471,626)"/>
<path d="M0 0 C14.575 -0.4125 14.575 -0.4125 20 3 C22.82544031 7.23816047 22.65366373 11.02398485 22 16 C19.47625748 19.8826808 16.4511772 21.04617631 12 22 C7.98338767 22.15408999 4.02289539 22.08939768 0 22 C0 14.74 0 7.48 0 0 Z " fill="#050505" transform="translate(560,483)"/>
<path d="M0 0 C3.5578125 -0.0928125 3.5578125 -0.0928125 7.1875 -0.1875 C8.29387817 -0.22846802 8.29387817 -0.22846802 9.42260742 -0.27026367 C13.83987371 -0.32574048 16.48869766 0.32565614 20 3 C22.08606926 5.65499724 21.99879455 7.06750504 21.9375 10.5 C20.78262218 14.81154387 19.77995591 15.70609536 16 18 C13.20143373 18.46386263 10.51392412 18.38032171 7.6875 18.25 C5.150625 18.1675 2.61375 18.085 0 18 C0 12.06 0 6.12 0 0 Z " fill="#0A0A0A" transform="translate(471,602)"/>
<path d="M0 0 C0.33 0 0.66 0 1 0 C1 37.95 1 75.9 1 115 C32.35 115 63.7 115 96 115 C96 115.66 96 116.32 96 117 C64.32 117 32.64 117 0 117 C-0.96836357 114.0949093 -1.11214592 112.32673796 -1.08229065 109.31135559 C-1.07525116 108.34801804 -1.06821167 107.38468048 -1.06095886 106.39215088 C-1.04801285 105.33695251 -1.03506683 104.28175415 -1.02172852 103.19458008 C-1.01212097 102.08223495 -1.00251343 100.96988983 -0.99261475 99.82383728 C-0.95957539 96.13900521 -0.91926168 92.45428987 -0.87890625 88.76953125 C-0.85460997 86.21791498 -0.83076617 83.66629437 -0.80735779 81.1146698 C-0.75089952 75.07984506 -0.68987016 69.04508321 -0.62663645 63.01032704 C-0.55489973 56.13980966 -0.48898671 49.26924028 -0.42356598 42.3986603 C-0.28886328 28.26570608 -0.14683694 14.13283298 0 0 Z " fill="#101010" transform="translate(396,272)"/>
<path d="M0 0 C0.66 0 1.32 0 2 0 C3.15404744 3.20543756 4.29674424 6.41481059 5.4375 9.625 C5.76298828 10.52863281 6.08847656 11.43226563 6.42382812 12.36328125 C6.73642578 13.24628906 7.04902344 14.12929688 7.37109375 15.0390625 C7.65911865 15.84553223 7.94714355 16.65200195 8.24389648 17.48291016 C9 20 9 20 10 26 C4.06 26 -1.88 26 -8 26 C-5.75 17 -5.75 17 -4.4921875 13.28125 C-4.22792969 12.49492188 -3.96367188 11.70859375 -3.69140625 10.8984375 C-3.42199219 10.10695313 -3.15257812 9.31546875 -2.875 8.5 C-2.59785156 7.67757812 -2.32070313 6.85515625 -2.03515625 6.0078125 C-1.3595435 4.00427123 -0.68016663 2.00199989 0 0 Z " fill="#070707" transform="translate(539,602)"/>
<path d="M0 0 C0.66 0 1.32 0 2 0 C3.15533757 2.85063708 4.29939512 5.70498814 5.4375 8.5625 C5.76298828 9.36236328 6.08847656 10.16222656 6.42382812 10.98632812 C6.73642578 11.77587891 7.04902344 12.56542969 7.37109375 13.37890625 C7.8031311 14.45507202 7.8031311 14.45507202 8.24389648 15.55297852 C9 18 9 18 10 25 C4.06 25 -1.88 25 -8 25 C-5.80536765 16.45248454 -3.05452766 8.27016382 0 0 Z " fill="#070707" transform="translate(657,603)"/>
<path d="M0 0 C0.66 0 1.32 0 2 0 C3.33834986 3.78991493 4.66982663 7.58220836 6 11.375 C6.3815625 12.45523438 6.763125 13.53546875 7.15625 14.6484375 C7.5171875 15.6796875 7.878125 16.7109375 8.25 17.7734375 C8.58515625 18.72653809 8.9203125 19.67963867 9.265625 20.66162109 C10 23 10 23 10 25 C4.06 25 -1.88 25 -8 25 C-7.33626203 21.68131013 -6.68378456 18.80274043 -5.625 15.64453125 C-5.36203125 14.85755859 -5.0990625 14.07058594 -4.828125 13.25976562 C-4.55484375 12.45216797 -4.2815625 11.64457031 -4 10.8125 C-3.72671875 9.99330078 -3.4534375 9.17410156 -3.171875 8.33007812 C-1.14074248 2.28148496 -1.14074248 2.28148496 0 0 Z " fill="#060606" transform="translate(421,603)"/>
<path d="M0 0 C2 1 2 1 2.76196289 2.68652344 C2.9964917 3.40356445 3.23102051 4.12060547 3.47265625 4.859375 C3.86227539 6.03886719 3.86227539 6.03886719 4.25976562 7.2421875 C4.52466797 8.06976563 4.78957031 8.89734375 5.0625 9.75 C5.33126953 10.56210937 5.60003906 11.37421875 5.87695312 12.2109375 C7.16755124 16.16319308 8.17988934 19.8994467 9 24 C3.39 24 -2.22 24 -8 24 C-6.37143718 17.71840054 -4.6624929 11.9037886 -2 6 C-1.31163487 4.00736409 -0.63718601 2.00958663 0 0 Z " fill="#060606" transform="translate(621,483)"/>
</svg>
